<svg width="26" height="47" viewBox="0 0 26 47" fill="none" xmlns="http://www.w3.org/2000/svg">
<g id="Calculator CTA Button">
<path id="Vector" d="M22.5334 0.55957H4.64981C3.28541 0.55957 2.18311 1.57267 2.18311 2.82664V27.7645C2.18311 29.0184 3.28541 30.0315 4.64981 30.0315H22.5334C23.8978 30.0315 25.0001 29.0184 25.0001 27.7645V2.82664C25.0001 1.57267 23.8978 0.55957 22.5334 0.55957ZM21.6084 19.8297V25.4974C21.6084 26.4396 20.7836 27.1977 19.7584 27.1977C18.7331 27.1977 17.9083 26.4396 17.9083 25.4974V19.8297C17.9083 18.8874 18.7331 18.1294 19.7584 18.1294C20.7836 18.1294 21.6084 18.8874 21.6084 19.8297ZM21.6084 14.162C21.6084 15.1043 20.7836 15.8623 19.7584 15.8623C18.7331 15.8623 17.9083 15.1043 17.9083 14.162C17.9083 13.2198 18.7331 12.4617 19.7584 12.4617C20.7836 12.4617 21.6084 13.2198 21.6084 14.162ZM15.4416 25.4974C15.4416 26.4396 14.6168 27.1977 13.5916 27.1977C12.5664 27.1977 11.7416 26.4396 11.7416 25.4974C11.7416 24.5551 12.5664 23.7971 13.5916 23.7971C14.6168 23.7971 15.4416 24.5551 15.4416 25.4974ZM15.4416 19.8297C15.4416 20.772 14.6168 21.53 13.5916 21.53C12.5664 21.53 11.7416 20.772 11.7416 19.8297C11.7416 18.8874 12.5664 18.1294 13.5916 18.1294C14.6168 18.1294 15.4416 18.8874 15.4416 19.8297ZM15.4416 14.162C15.4416 15.1043 14.6168 15.8623 13.5916 15.8623C12.5664 15.8623 11.7416 15.1043 11.7416 14.162C11.7416 13.2198 12.5664 12.4617 13.5916 12.4617C14.6168 12.4617 15.4416 13.2198 15.4416 14.162ZM9.27488 25.4974C9.27488 26.4396 8.45007 27.1977 7.42485 27.1977C6.39963 27.1977 5.57482 26.4396 5.57482 25.4974C5.57482 24.5551 6.39963 23.7971 7.42485 23.7971C8.45007 23.7971 9.27488 24.5551 9.27488 25.4974ZM9.27488 19.8297C9.27488 20.772 8.45007 21.53 7.42485 21.53C6.39963 21.53 5.57482 20.772 5.57482 19.8297C5.57482 18.8874 6.39963 18.1294 7.42485 18.1294C8.45007 18.1294 9.27488 18.8874 9.27488 19.8297ZM9.27488 14.162C9.27488 15.1043 8.45007 15.8623 7.42485 15.8623C6.39963 15.8623 5.57482 15.1043 5.57482 14.162C5.57482 13.2198 6.39963 12.4617 7.42485 12.4617C8.45007 12.4617 9.27488 13.2198 9.27488 14.162ZM5.57482 8.49433V5.09372C5.57482 4.47027 6.12983 3.96018 6.80817 3.96018H20.375C21.0534 3.96018 21.6084 4.47027 21.6084 5.09372V8.49433C21.6084 9.11777 21.0534 9.62787 20.375 9.62787H6.80817C6.12983 9.62787 5.57482 9.11777 5.57482 8.49433Z" fill="white"/>
<path id="Arrow 1" d="M1.23242 40.6899C0.818208 40.6899 0.482422 41.0257 0.482422 41.4399C0.482422 41.8542 0.818208 42.1899 1.23242 42.1899L1.23242 40.6899ZM25.5305 41.9703C25.8234 41.6774 25.8234 41.2025 25.5305 40.9096L20.7575 36.1366C20.4646 35.8438 19.9897 35.8438 19.6968 36.1366C19.4039 36.4295 19.4039 36.9044 19.6968 37.1973L23.9395 41.4399L19.6968 45.6826C19.4039 45.9755 19.4039 46.4504 19.6968 46.7432C19.9897 47.0361 20.4646 47.0361 20.7575 46.7432L25.5305 41.9703ZM1.23242 42.1899L25.0001 42.1899L25.0001 40.6899L1.23242 40.6899L1.23242 42.1899Z" fill="white"/>
</g>
</svg>
