<svg width="436" height="514" viewBox="0 0 436 514" fill="none" xmlns="http://www.w3.org/2000/svg">
<g id="Guide CTA button">
<g id="Vector" filter="url(#filter0_f_1573_1629)">
<path d="M216.74 150.006C179.384 150.507 149.509 181.261 150.006 218.693C150.506 256.11 181.194 286.054 218.548 285.556C255.897 285.052 285.778 254.299 285.281 216.869C284.781 179.45 254.091 149.507 216.74 150.006ZM216.54 259.039L216.166 259.033C210.414 258.862 206.358 254.616 206.521 248.937C206.681 243.355 210.836 239.303 216.399 239.303L216.732 239.309C222.645 239.484 226.655 243.688 226.489 249.531C226.325 255.129 222.235 259.039 216.54 259.039ZM240.737 210.916C239.384 212.842 236.409 215.234 232.661 218.16L228.533 221.016C226.267 222.781 224.9 224.441 224.386 226.076C223.982 227.362 223.783 227.702 223.748 230.319C223.745 230.687 223.446 230.984 223.078 230.984H209.319C208.587 230.984 208.002 230.378 208.027 229.647C208.22 224.154 208.355 220.923 210.627 218.253C214.191 214.059 222.054 208.986 222.388 208.771C223.514 207.921 224.464 206.952 225.172 205.918C226.826 203.633 227.558 201.834 227.558 200.065C227.558 197.612 226.832 195.343 225.395 193.323C224.014 191.373 221.391 190.386 217.597 190.386C213.834 190.386 211.258 191.582 209.717 194.037C208.131 196.561 207.33 199.212 207.33 201.92C207.33 202.292 207.028 202.594 206.656 202.594H191.783C191.399 202.594 191.093 202.274 191.109 201.891C191.528 191.917 195.08 184.735 201.664 180.544C205.801 177.876 210.947 176.523 216.953 176.523C224.814 176.523 231.451 178.437 236.676 182.212C241.969 186.038 244.655 191.767 244.655 199.24C244.655 203.42 243.337 207.347 240.737 210.916Z" fill="#91FF04"/>
<path d="M174.03 353.566C171.794 353.566 170.005 353.244 168.663 352.601C167.349 351.958 166.384 350.896 165.769 349.414C165.154 347.932 164.847 345.919 164.847 343.375V324.463L169.124 324.211V342.956C169.124 344.326 169.278 345.374 169.585 346.101C169.893 346.828 170.396 347.331 171.095 347.611C171.794 347.89 172.772 348.03 174.03 348.03V353.566Z" fill="#91FF04"/>
<path d="M195.793 341.908C196.52 343.529 197.233 344.787 197.932 345.682C198.659 346.549 199.427 347.164 200.238 347.527C201.077 347.862 202.083 348.03 203.258 348.03V353.566C199.4 353.566 196.786 352.126 195.416 349.246C195.024 350.672 194.451 351.818 193.696 352.685C192.97 353.552 192.145 353.985 191.222 353.985C189.573 353.985 187.686 353.608 185.561 352.853C183.464 352.098 181.843 351.189 180.697 350.127C179.774 351.357 178.768 352.238 177.677 352.769C176.615 353.3 175.4 353.566 174.03 353.566C173.639 353.566 173.33 353.342 173.106 352.895C172.883 352.447 172.771 351.79 172.771 350.924C172.771 350.029 172.883 349.33 173.106 348.827C173.33 348.296 173.639 348.03 174.03 348.03C175.093 348.03 175.986 347.918 176.713 347.695C177.44 347.443 178.111 347.01 178.726 346.395C179.341 345.78 179.984 344.871 180.655 343.669C182.108 341.125 183.478 339.266 184.764 338.092C186.05 336.917 187.462 336.33 189 336.33C190.481 336.33 191.767 336.778 192.858 337.672C193.948 338.567 194.926 339.979 195.793 341.908ZM191.767 348.701C192.103 347.918 192.271 347.08 192.271 346.185C192.271 344.647 191.907 343.403 191.18 342.453C190.481 341.502 189.559 341.027 188.413 341.027C187.546 341.027 186.735 341.432 185.98 342.243C185.226 343.026 184.415 344.284 183.548 346.017C184.359 346.772 185.561 347.415 187.155 347.946C188.748 348.45 190.286 348.701 191.767 348.701Z" fill="#91FF04"/>
<path d="M219.455 353.566C217.666 353.566 216.171 353.342 214.968 352.895C213.794 352.447 212.872 351.72 212.201 350.714C211.362 351.665 210.23 352.377 208.804 352.853C207.406 353.328 205.561 353.566 203.269 353.566C202.877 353.566 202.57 353.342 202.346 352.895C202.122 352.447 202.011 351.79 202.011 350.924C202.011 350.029 202.122 349.33 202.346 348.827C202.57 348.296 202.877 348.03 203.269 348.03C205.477 348.03 207.141 347.779 208.259 347.275C209.405 346.744 210.244 345.85 210.775 344.592C211.334 343.306 211.739 341.363 211.991 338.763L215.975 339.098C215.891 340.356 215.737 341.614 215.514 342.872C215.29 344.13 215.038 345.151 214.759 345.933C215.514 347.331 217.079 348.03 219.455 348.03V353.566ZM211.194 335.366L208.049 332.221L211.194 329.076L214.339 332.221L211.194 335.366Z" fill="#91FF04"/>
<path d="M227.035 330.669C232.43 333.493 236.428 335.771 239.028 337.505C241.628 339.238 243.403 340.845 244.354 342.327C245.332 343.781 245.822 345.514 245.822 347.527C245.822 348.617 245.598 349.68 245.151 350.714C244.731 351.748 244.158 352.587 243.431 353.23C242.732 353.873 242.006 354.195 241.251 354.195C240.412 354.195 238.791 353.929 236.386 353.398C234.01 352.839 231.801 352.196 229.761 351.469C228.419 352.252 226.923 352.797 225.274 353.104C223.652 353.412 221.709 353.566 219.445 353.566C219.053 353.566 218.746 353.342 218.522 352.895C218.298 352.447 218.187 351.79 218.187 350.924C218.187 350.029 218.298 349.33 218.522 348.827C218.746 348.296 219.053 348.03 219.445 348.03C222.268 348.03 224.085 347.918 224.896 347.695C224.225 347.108 223.75 346.507 223.47 345.892C223.191 345.249 223.051 344.508 223.051 343.669C223.051 342.607 223.415 341.391 224.141 340.021C224.896 338.623 226 337.351 227.454 336.205L225.022 334.863L227.035 330.669ZM230.851 338.343C229.9 338.679 229.006 339.308 228.167 340.23C227.356 341.153 226.839 342.048 226.616 342.914C226.727 343.613 227.105 344.298 227.748 344.969C228.391 345.64 229.229 346.185 230.264 346.604C230.991 346.297 231.704 345.836 232.403 345.221C233.129 344.606 233.577 344.004 233.744 343.417C233.661 342.271 233.367 341.265 232.864 340.398C232.389 339.503 231.718 338.819 230.851 338.343ZM236.554 341.111C236.778 341.866 236.89 342.621 236.89 343.375C236.89 345.221 236.093 346.758 234.499 347.988C235.422 348.352 236.61 348.687 238.064 348.995C239.517 349.302 240.692 349.512 241.586 349.624C241.838 349.093 241.964 348.492 241.964 347.821C241.964 346.507 241.572 345.346 240.789 344.34C240.007 343.334 238.595 342.257 236.554 341.111Z" fill="#91FF04"/>
<path d="M252.248 337.253C252.248 334.318 252.192 332.039 252.08 330.418C251.996 328.796 251.773 326.965 251.409 324.924L255.687 324.085C256.05 325.986 256.274 327.804 256.357 329.537C256.469 331.242 256.525 333.716 256.525 336.959V353.566H252.248V337.253Z" fill="#91FF04"/>
<path d="M268.731 337.756C270.044 343.627 270.701 348.128 270.701 351.259C270.701 353.16 270.226 355.047 269.276 356.92C268.353 358.821 267.193 360.373 265.795 361.575C264.425 362.805 263.125 363.42 261.895 363.42C261.308 363.42 260.497 363.281 259.463 363.001C258.456 362.721 257.394 362.33 256.276 361.827L257.198 358.556C258.205 358.807 259.239 358.933 260.302 358.933C261.112 358.933 261.993 358.556 262.944 357.801C263.894 357.046 264.691 356.11 265.334 354.991C266.005 353.873 266.34 352.825 266.34 351.846C266.34 349.554 265.641 345.235 264.243 338.888L268.731 337.756Z" fill="#91FF04"/>
</g>
<g id="Vector_2">
<path d="M216.74 150.006C179.384 150.507 149.509 181.261 150.006 218.693C150.506 256.11 181.194 286.054 218.548 285.556C255.897 285.052 285.778 254.299 285.281 216.869C284.781 179.45 254.091 149.507 216.74 150.006ZM216.54 259.039L216.166 259.033C210.414 258.862 206.358 254.616 206.521 248.937C206.681 243.355 210.836 239.303 216.399 239.303L216.732 239.309C222.645 239.484 226.655 243.688 226.489 249.531C226.325 255.129 222.235 259.039 216.54 259.039ZM240.737 210.916C239.384 212.842 236.409 215.234 232.661 218.16L228.533 221.016C226.267 222.781 224.9 224.441 224.386 226.076C223.982 227.362 223.783 227.702 223.748 230.319C223.745 230.687 223.446 230.984 223.078 230.984H209.319C208.587 230.984 208.002 230.378 208.027 229.647C208.22 224.154 208.355 220.923 210.627 218.253C214.191 214.059 222.054 208.986 222.388 208.771C223.514 207.921 224.464 206.952 225.172 205.918C226.826 203.633 227.558 201.834 227.558 200.065C227.558 197.612 226.832 195.343 225.395 193.323C224.014 191.373 221.391 190.386 217.597 190.386C213.834 190.386 211.258 191.582 209.717 194.037C208.131 196.561 207.33 199.212 207.33 201.92C207.33 202.292 207.028 202.594 206.656 202.594H191.783C191.399 202.594 191.093 202.274 191.109 201.891C191.528 191.917 195.08 184.735 201.664 180.544C205.801 177.876 210.947 176.523 216.953 176.523C224.814 176.523 231.451 178.437 236.676 182.212C241.969 186.038 244.655 191.767 244.655 199.24C244.655 203.42 243.337 207.347 240.737 210.916Z" fill="white"/>
<path d="M174.03 353.566C171.794 353.566 170.005 353.244 168.663 352.601C167.349 351.958 166.384 350.896 165.769 349.414C165.154 347.932 164.847 345.92 164.847 343.375V324.463L169.124 324.211V342.956C169.124 344.326 169.278 345.374 169.585 346.101C169.893 346.828 170.396 347.331 171.095 347.611C171.794 347.89 172.772 348.03 174.03 348.03V353.566Z" fill="white"/>
<path d="M195.793 341.908C196.52 343.529 197.233 344.787 197.932 345.682C198.659 346.549 199.427 347.164 200.238 347.527C201.077 347.862 202.083 348.03 203.258 348.03V353.566C199.4 353.566 196.786 352.126 195.416 349.246C195.024 350.672 194.451 351.818 193.696 352.685C192.97 353.552 192.145 353.985 191.222 353.985C189.573 353.985 187.686 353.608 185.561 352.853C183.464 352.098 181.843 351.189 180.697 350.127C179.774 351.357 178.768 352.238 177.677 352.769C176.615 353.3 175.4 353.566 174.03 353.566C173.639 353.566 173.33 353.342 173.106 352.895C172.883 352.447 172.771 351.79 172.771 350.924C172.771 350.029 172.883 349.33 173.106 348.827C173.33 348.296 173.639 348.03 174.03 348.03C175.093 348.03 175.986 347.918 176.713 347.695C177.44 347.443 178.111 347.01 178.726 346.395C179.341 345.78 179.984 344.871 180.655 343.669C182.108 341.125 183.478 339.266 184.764 338.092C186.05 336.918 187.462 336.33 189 336.33C190.481 336.33 191.767 336.778 192.858 337.672C193.948 338.567 194.926 339.979 195.793 341.908ZM191.767 348.701C192.103 347.918 192.271 347.08 192.271 346.185C192.271 344.647 191.907 343.403 191.18 342.453C190.481 341.502 189.559 341.027 188.413 341.027C187.546 341.027 186.735 341.432 185.98 342.243C185.226 343.026 184.415 344.284 183.548 346.017C184.359 346.772 185.561 347.415 187.155 347.946C188.748 348.45 190.286 348.701 191.767 348.701Z" fill="white"/>
<path d="M219.455 353.566C217.666 353.566 216.171 353.342 214.968 352.895C213.794 352.447 212.872 351.72 212.201 350.714C211.362 351.665 210.23 352.377 208.804 352.853C207.406 353.328 205.561 353.566 203.269 353.566C202.877 353.566 202.57 353.342 202.346 352.895C202.122 352.447 202.011 351.79 202.011 350.924C202.011 350.029 202.122 349.33 202.346 348.827C202.57 348.296 202.877 348.03 203.269 348.03C205.477 348.03 207.141 347.779 208.259 347.275C209.405 346.744 210.244 345.85 210.775 344.592C211.334 343.306 211.739 341.363 211.991 338.763L215.975 339.098C215.891 340.356 215.737 341.614 215.514 342.872C215.29 344.13 215.038 345.151 214.759 345.933C215.514 347.331 217.079 348.03 219.455 348.03V353.566ZM211.194 335.366L208.049 332.221L211.194 329.076L214.339 332.221L211.194 335.366Z" fill="white"/>
<path d="M227.035 330.669C232.43 333.493 236.428 335.771 239.028 337.505C241.628 339.238 243.403 340.845 244.354 342.327C245.332 343.781 245.822 345.514 245.822 347.527C245.822 348.617 245.598 349.68 245.151 350.714C244.731 351.748 244.158 352.587 243.431 353.23C242.732 353.873 242.006 354.195 241.251 354.195C240.412 354.195 238.791 353.929 236.386 353.398C234.01 352.839 231.801 352.196 229.761 351.469C228.419 352.252 226.923 352.797 225.274 353.104C223.652 353.412 221.709 353.566 219.445 353.566C219.053 353.566 218.746 353.342 218.522 352.895C218.298 352.447 218.187 351.79 218.187 350.924C218.187 350.029 218.298 349.33 218.522 348.827C218.746 348.296 219.053 348.03 219.445 348.03C222.268 348.03 224.085 347.918 224.896 347.695C224.225 347.108 223.75 346.507 223.47 345.892C223.191 345.249 223.051 344.508 223.051 343.669C223.051 342.607 223.415 341.391 224.141 340.021C224.896 338.623 226 337.351 227.454 336.205L225.022 334.863L227.035 330.669ZM230.851 338.343C229.9 338.679 229.006 339.308 228.167 340.23C227.356 341.153 226.839 342.048 226.616 342.914C226.727 343.613 227.105 344.298 227.748 344.969C228.391 345.64 229.229 346.185 230.264 346.604C230.991 346.297 231.704 345.836 232.403 345.221C233.129 344.606 233.577 344.005 233.744 343.417C233.661 342.271 233.367 341.265 232.864 340.398C232.389 339.503 231.718 338.819 230.851 338.343ZM236.554 341.111C236.778 341.866 236.89 342.621 236.89 343.375C236.89 345.221 236.093 346.758 234.499 347.988C235.422 348.352 236.61 348.687 238.064 348.995C239.517 349.302 240.692 349.512 241.586 349.624C241.838 349.093 241.964 348.492 241.964 347.821C241.964 346.507 241.572 345.346 240.789 344.34C240.007 343.334 238.595 342.257 236.554 341.111Z" fill="white"/>
<path d="M252.248 337.253C252.248 334.318 252.192 332.039 252.08 330.418C251.996 328.796 251.773 326.965 251.409 324.924L255.687 324.085C256.05 325.987 256.274 327.804 256.357 329.537C256.469 331.242 256.525 333.716 256.525 336.959V353.566H252.248V337.253Z" fill="white"/>
<path d="M268.731 337.756C270.044 343.627 270.701 348.128 270.701 351.259C270.701 353.16 270.226 355.047 269.276 356.92C268.353 358.821 267.193 360.373 265.795 361.575C264.425 362.805 263.125 363.42 261.895 363.42C261.308 363.42 260.497 363.281 259.463 363.001C258.456 362.721 257.394 362.33 256.276 361.827L257.198 358.556C258.205 358.807 259.239 358.933 260.302 358.933C261.112 358.933 261.993 358.556 262.944 357.801C263.894 357.046 264.691 356.11 265.334 354.991C266.005 353.873 266.34 352.825 266.34 351.846C266.34 349.554 265.641 345.235 264.243 338.888L268.731 337.756Z" fill="white"/>
</g>
</g>
<defs>
<filter id="filter0_f_1573_1629" x="0" y="0" width="435.287" height="513.42" filterUnits="userSpaceOnUse" color-interpolation-filters="sRGB">
<feFlood flood-opacity="0" result="BackgroundImageFix"/>
<feBlend mode="normal" in="SourceGraphic" in2="BackgroundImageFix" result="shape"/>
<feGaussianBlur stdDeviation="75" result="effect1_foregroundBlur_1573_1629"/>
</filter>
</defs>
</svg>
