<svg width="10" height="10" viewBox="0 0 10 10" fill="none" xmlns="http://www.w3.org/2000/svg">
<path id="Field Delete Icon" fill-rule="evenodd" clip-rule="evenodd" d="M10 5C10 7.76142 7.76142 10 5 10C2.23858 10 0 7.76142 0 5C0 2.23858 2.23858 0 5 0C7.76142 0 10 2.23858 10 5ZM2.0882 7.92854C1.89294 7.73328 1.89294 7.41669 2.0882 7.22143L4.30092 5.00872L2.0882 2.79601C1.89294 2.60074 1.89294 2.28416 2.0882 2.0889C2.28346 1.89364 2.60005 1.89364 2.79531 2.0889L5.00802 4.30161L7.22088 2.08876C7.41614 1.89349 7.73272 1.89349 7.92798 2.08876C8.12325 2.28402 8.12325 2.6006 7.92798 2.79586L5.71513 5.00872L7.92798 7.22158C8.12325 7.41684 8.12325 7.73342 7.92798 7.92868C7.73272 8.12394 7.41614 8.12395 7.22088 7.92868L5.00802 5.71583L2.79531 7.92854C2.60005 8.1238 2.28346 8.1238 2.0882 7.92854Z" fill="#090909"/>
</svg>
