<svg width="80" height="21" viewBox="0 0 80 21" fill="none" xmlns="http://www.w3.org/2000/svg">
<g id="&#216;&#170;&#219;&#140;&#217;&#133; &#219;&#185; &#216;&#170;&#216;&#177;&#217;&#133;&#217;&#135;">
<path d="M4.74 13.86C3.88667 13.86 3.09333 13.6467 2.36 13.22C1.64 12.7933 1.06667 12.22 0.64 11.5C0.213333 10.78 0 10 0 9.16C0 8.32 0.213333 7.56667 0.64 6.9C1.06667 6.22 1.64 5.69333 2.36 5.32C3.08 4.93333 3.87333 4.74 4.74 4.74H5.52V3.34H9.16V9.16C9.16 10.0133 8.96667 10.8 8.58 11.52C8.20667 12.24 7.68 12.8133 7 13.24C6.33333 13.6533 5.58 13.86 4.74 13.86ZM4.74 9.98C4.98 9.98 5.16667 9.90667 5.3 9.76C5.44667 9.6 5.52 9.4 5.52 9.16V8.42H4.74C4.48667 8.42 4.28667 8.48667 4.14 8.62C3.99333 8.75333 3.92 8.93333 3.92 9.16C3.92 9.4 3.99333 9.6 4.14 9.76C4.28667 9.90667 4.48667 9.98 4.74 9.98ZM9.58 14.46C8.83333 14.46 8.18667 14.28 7.64 13.92C7.09333 13.56 6.68 13.0733 6.4 12.46C6.12 11.8333 5.98 11.14 5.98 10.38V6.34H9.16V10.14C9.16 10.2733 9.19333 10.38 9.26 10.46C9.34 10.54 9.44667 10.58 9.58 10.58H10.38C10.5133 10.58 10.58 10.6467 10.58 10.78V14.26C10.58 14.3933 10.5133 14.46 10.38 14.46H9.58Z" fill="#0097FF"/>
<path d="M16.6589 14.5C15.8189 14.5 15.0589 14.2933 14.3789 13.88C13.7122 13.4533 13.1856 12.88 12.7989 12.16C12.4256 11.44 12.2389 10.6533 12.2389 9.8V9.06H10.9589V5.38H16.6589C17.5122 5.38 18.2989 5.57333 19.0189 5.96C19.7389 6.33333 20.3056 6.86 20.7189 7.54C21.1456 8.20667 21.3589 8.96 21.3589 9.8C21.3589 10.6533 21.1456 11.44 20.7189 12.16C20.3056 12.8667 19.7389 13.4333 19.0189 13.86C18.2989 14.2867 17.5122 14.5 16.6589 14.5ZM10.3789 14.46C10.2456 14.46 10.1789 14.3933 10.1789 14.26V10.78C10.1789 10.6467 10.2456 10.58 10.3789 10.58H11.8189C11.9522 10.58 12.0522 10.54 12.1189 10.46C12.1989 10.38 12.2389 10.2733 12.2389 10.14V9.44H15.1789V10.38C15.1789 11.58 14.8922 12.56 14.3189 13.32C13.7589 14.08 12.9256 14.46 11.8189 14.46H10.3789ZM16.6589 10.62C16.9122 10.62 17.1122 10.5467 17.2589 10.4C17.4056 10.24 17.4789 10.04 17.4789 9.8C17.4789 9.57333 17.4056 9.39333 17.2589 9.26C17.1122 9.12667 16.9122 9.06 16.6589 9.06H15.8789V9.8C15.8789 10.04 15.9456 10.24 16.0789 10.4C16.2256 10.5467 16.4189 10.62 16.6589 10.62Z" fill="#0097FF"/>
<path d="M19.8072 17.34C20.7405 16.78 21.3939 16.3267 21.7672 15.98C22.1405 15.6333 22.3672 15.2933 22.4472 14.96C22.5405 14.6267 22.5872 14.0867 22.5872 13.34V6.34H26.2672V13.34C26.2672 14.5533 26.1272 15.5467 25.8472 16.32C25.5805 17.0933 25.0872 17.7933 24.3672 18.42C23.6472 19.06 22.5872 19.7267 21.1872 20.42L19.8072 17.34ZM26.6872 14.46C25.6072 14.46 24.8405 14.0933 24.3872 13.36C23.9472 12.6267 23.7272 11.6333 23.7272 10.38V6.34H26.2672V10.14C26.2672 10.2733 26.3005 10.38 26.3672 10.46C26.4472 10.54 26.5539 10.58 26.6872 10.58H27.4872C27.6205 10.58 27.6872 10.6467 27.6872 10.78V14.26C27.6872 14.3933 27.6205 14.46 27.4872 14.46H26.6872Z" fill="#0097FF"/>
<path d="M27.4883 14.46C27.3549 14.46 27.2883 14.3933 27.2883 14.26V10.78C27.2883 10.6467 27.3549 10.58 27.4883 10.58H29.6483C29.7549 10.58 29.8483 10.54 29.9283 10.46C30.0083 10.38 30.0483 10.28 30.0483 10.16V5.78H33.7283V10.4C33.7283 11.1333 33.5483 11.8133 33.1883 12.44C32.8283 13.0533 32.3416 13.5467 31.7283 13.92C31.1149 14.28 30.4349 14.46 29.6883 14.46H27.4883ZM27.5283 1.08H30.6283V4.18H27.5283V1.08ZM30.6283 1.08H33.7283V4.18H30.6283V1.08Z" fill="#0097FF"/>
<path d="M43.8767 14.84C43.5434 14.0667 43.3101 13.1333 43.1767 12.04C43.0434 10.9467 42.9767 10.0133 42.9767 9.24V9.12H42.2367C41.3834 9.12 40.5967 8.93333 39.8767 8.56C39.1567 8.17333 38.5834 7.64667 38.1567 6.98C37.7434 6.3 37.5367 5.54 37.5367 4.7C37.5367 3.84667 37.7501 3.06 38.1767 2.34C38.6034 1.62 39.1701 1.05333 39.8767 0.64C40.5967 0.213333 41.3834 0 42.2367 0C43.0767 0 43.8301 0.213333 44.4967 0.64C45.1767 1.05333 45.7034 1.62 46.0767 2.34C46.4634 3.06 46.6567 3.84667 46.6567 4.7V7.78C46.6567 9.02 46.6967 10.1733 46.7767 11.24C46.8567 12.2933 47.0167 13.3133 47.2567 14.3L43.8767 14.84ZM42.9767 5.48V4.7C42.9767 4.44667 42.9101 4.24667 42.7767 4.1C42.6434 3.95333 42.4634 3.88 42.2367 3.88C41.9967 3.88 41.7967 3.95333 41.6367 4.1C41.4901 4.24667 41.4167 4.44667 41.4167 4.7C41.4167 4.94 41.4901 5.13333 41.6367 5.28C41.7967 5.41333 41.9967 5.48 42.2367 5.48H42.9767Z" fill="#0097FF"/>
<path d="M51.2719 9.92C51.2719 9.10667 51.4719 8.35333 51.8719 7.66C52.2852 6.96667 52.8319 6.41333 53.5119 6C54.2052 5.58667 54.9519 5.38 55.7519 5.38H60.3319C61.1852 5.38 61.9719 5.57333 62.6919 5.96C63.4119 6.33333 63.9785 6.86 64.3919 7.54C64.8185 8.20667 65.0319 8.96 65.0319 9.8C65.0319 10.6533 64.8185 11.44 64.3919 12.16C63.9785 12.8667 63.4119 13.4333 62.6919 13.86C61.9719 14.2867 61.1852 14.5 60.3319 14.5C59.4919 14.5 58.7319 14.2933 58.0519 13.88C57.3852 13.4533 56.8585 12.88 56.4719 12.16C56.0985 11.44 55.9119 10.6533 55.9119 9.8V9.06H55.7919C55.5652 9.06 55.3652 9.14667 55.1919 9.32C55.0319 9.49333 54.9519 9.69333 54.9519 9.92V19.48H51.2719V9.92ZM60.3319 10.62C60.5852 10.62 60.7852 10.5467 60.9319 10.4C61.0785 10.24 61.1519 10.04 61.1519 9.8C61.1519 9.57333 61.0785 9.38667 60.9319 9.24C60.7852 9.09333 60.5852 9.02 60.3319 9.02H59.5519V9.8C59.5519 10.04 59.6185 10.24 59.7519 10.4C59.8985 10.5467 60.0919 10.62 60.3319 10.62ZM65.4519 14.46C64.3452 14.46 63.5052 14.08 62.9319 13.32C62.3719 12.56 62.0919 11.58 62.0919 10.38V9.8H65.0319V10.14C65.0319 10.2733 65.0652 10.38 65.1319 10.46C65.2119 10.54 65.3185 10.58 65.4519 10.58H66.2519C66.3852 10.58 66.4519 10.6467 66.4519 10.78V14.26C66.4519 14.3933 66.3852 14.46 66.2519 14.46H65.4519Z" fill="#0097FF"/>
<path d="M66.0578 10.78C66.0578 10.6467 66.1245 10.58 66.2578 10.58H67.6578C67.7911 10.58 67.8911 10.54 67.9578 10.46C68.0378 10.38 68.0778 10.2733 68.0778 10.14V6.34H71.7578V10.14C71.7578 10.2733 71.7911 10.38 71.8578 10.46C71.9378 10.54 72.0445 10.58 72.1778 10.58H73.5778C73.7111 10.58 73.7778 10.6467 73.7778 10.78V14.26C73.7778 14.3933 73.7111 14.46 73.5778 14.46H72.1778C71.6978 14.46 71.2778 14.4067 70.9178 14.3C70.5712 14.1933 70.2378 14.02 69.9178 13.78C69.5978 14.02 69.2578 14.1933 68.8978 14.3C68.5511 14.4067 68.1378 14.46 67.6578 14.46H66.2578C66.1245 14.46 66.0578 14.3933 66.0578 14.26V10.78ZM66.8178 16.06H69.9178V19.16H66.8178V16.06ZM69.9178 16.06H73.0178V19.16H69.9178V16.06Z" fill="#0097FF"/>
<path d="M73.582 14.46C73.4487 14.46 73.382 14.3933 73.382 14.26V10.78C73.382 10.6467 73.4487 10.58 73.582 10.58H75.742C75.8487 10.58 75.942 10.54 76.022 10.46C76.102 10.38 76.142 10.28 76.142 10.16V5.78H79.822V10.4C79.822 11.1333 79.642 11.8133 79.282 12.44C78.922 13.0533 78.4354 13.5467 77.822 13.92C77.2087 14.28 76.5287 14.46 75.782 14.46H73.582ZM73.622 1.08H76.722V4.18H73.622V1.08ZM76.722 1.08H79.822V4.18H76.722V1.08Z" fill="#0097FF"/>
</g>
</svg>
