<svg width="64" height="91" viewBox="0 0 64 91" fill="none" xmlns="http://www.w3.org/2000/svg">
<g id="Logo">
<g id="Group" opacity="0.81">
<g id="Group_2">
<path id="Vector" d="M10.5884 21.0178C10.5884 21.0183 10.589 21.0184 10.5893 21.018C10.7261 20.7686 10.9365 20.6824 11.2168 20.6896C11.6831 20.7022 12.1495 20.6914 12.6159 20.6932C13.0282 20.695 13.1939 20.8609 13.1957 21.2738C13.1975 21.7625 13.1975 22.2511 13.1957 22.738C13.1939 23.1419 13.0282 23.3078 12.6303 23.3078C12.1495 23.3078 11.6687 23.2987 11.188 23.3114C10.7038 23.3239 10.5884 22.7188 10.5884 22.2345V21.0178Z" fill="black"/>
<path id="Vector_2" d="M33.1493 0.465121C33.1496 0.465484 33.1501 0.465783 33.1505 0.465996C33.4039 0.581426 33.5081 0.770664 33.4991 1.05349C33.4847 1.54754 33.4973 2.0416 33.4937 2.53746C33.4919 2.89988 33.3227 3.07118 32.9626 3.07479C32.4476 3.0802 31.9326 3.07839 31.4176 3.07479C31.0611 3.07118 30.8955 2.89808 30.8937 2.53385C30.8919 2.0398 30.9045 1.54394 30.8883 1.04988C30.887 1.01142 30.8878 0.974623 30.8907 0.939472C30.9246 0.528254 31.4519 0.463867 31.8645 0.463867H33.1462C33.1474 0.463867 33.1485 0.464318 33.1493 0.465121Z" fill="black"/>
<path id="Vector_3" d="M34.1504 31.1016C34.1494 31.101 34.1483 31.1004 34.1471 31.1C34.1116 31.0878 34.0726 31.0826 34.0318 31.0826H32.2276C31.691 31.0826 31.1544 31.0826 30.6179 31.0826C30.418 31.0826 30.3676 31.0231 30.3316 30.9564C30.2901 30.8824 30.2631 30.8013 30.373 30.6354C30.9546 29.7573 31.5362 28.8774 32.1178 27.9974C33.3008 26.2069 34.5234 24.3551 35.7352 22.5412C36.1997 21.8452 36.6805 21.124 36.9668 20.2873C37.3737 19.099 37.4169 18.1344 37.1054 17.249C36.4122 15.2764 35.177 14.081 33.434 13.6987C33.0397 13.6121 32.6453 13.5671 32.2618 13.5671C30.4684 13.5671 28.9343 14.4957 27.9422 16.1816C27.1013 17.6097 27.0689 19.1784 27.8467 20.8391C28.0808 21.3403 28.3815 21.8055 28.6732 22.2563C28.7794 22.4204 28.8839 22.5827 28.9865 22.7486C29.127 22.9758 29.2746 23.2029 29.4187 23.4211C29.5681 23.6501 29.723 23.8881 29.867 24.1225C30.1533 24.5877 30.1533 25.0313 29.867 25.4767C28.9145 26.957 27.935 28.4572 26.9878 29.9088L26.5989 30.5056C26.5395 30.5975 26.4621 30.648 26.381 30.648C26.3126 30.648 26.2424 30.6138 26.1758 30.5471C24.3247 28.6628 23.0445 26.3332 22.3693 23.6213C21.9443 21.9155 21.8075 20.2224 21.9605 18.5924C22.3171 14.8004 24.1213 11.9677 27.3209 10.1736C28.576 9.47038 30.0237 9.05927 31.6244 8.95469C31.8855 8.93666 32.1466 8.92944 32.4023 8.92944C34.1885 8.92944 35.8684 9.35678 37.3989 10.1988C39.0789 11.1238 40.406 12.4762 41.3459 14.2216C42.0409 15.5108 42.464 16.9353 42.6045 18.4517C42.8566 21.169 42.4028 23.8376 41.2558 26.3818C40.5752 27.8929 39.6443 29.2686 38.4937 30.4695C38.1696 30.8067 37.8203 30.9708 37.3935 30.9834C36.5941 31.0087 35.7928 31.0411 34.9933 31.0718L34.1589 31.104C34.1559 31.1042 34.1529 31.1033 34.1504 31.1016Z" fill="black"/>
<path id="Vector_4" d="M17.3353 36.8328C17.3353 36.8338 17.3361 36.8346 17.3371 36.8347C18.0801 36.8779 18.8124 36.9193 19.5447 36.9626C21.095 37.0564 22.6471 37.1501 24.1974 37.2439C24.3811 37.2547 24.5647 37.2691 24.7466 37.2799C25.168 37.3034 25.339 37.4891 25.294 37.902C25.2166 38.6016 25.2886 39.2868 25.4741 39.9594C26.0376 42.0023 27.7518 43.4322 29.8531 43.6197C30.008 43.6341 30.1628 43.6432 30.3177 43.654C30.5968 43.672 30.7678 43.8487 30.7768 44.1318C30.7768 44.1679 30.7768 44.2021 30.7768 44.2382C30.7768 48.8307 30.7768 53.4233 30.7732 58.014C30.7732 58.1475 30.7444 58.3007 30.6778 58.4125C30.5554 58.6163 30.3267 58.6343 30.0548 58.5333C28.8322 58.0789 27.6204 57.5921 26.3798 57.1936C24.3919 56.5571 22.3464 56.1658 20.2685 55.9675C19.4456 55.8899 18.6209 55.8521 17.7963 55.8016C17.492 55.7836 17.3155 55.6159 17.2975 55.3093C17.2939 55.2462 17.2975 55.1813 17.2975 55.1182C17.2975 49.1896 17.2975 43.2591 17.2975 37.3304C17.2975 37.1736 17.3209 37.0149 17.3353 36.8328Z" fill="black"/>
<path id="Vector_5" d="M47.117 36.8328C47.119 36.8328 47.1207 36.8343 47.1209 36.8364C47.1353 37.0024 47.1548 37.1385 47.1548 37.2727C47.1548 43.2537 47.1548 49.2346 47.1548 55.2138C47.1548 55.6501 47.0089 55.789 46.5696 55.8034C43.2511 55.9098 40.0154 56.485 36.8769 57.5741C36.0576 57.859 35.2492 58.1763 34.4533 58.5207C33.9906 58.7208 33.6772 58.4414 33.6772 58.0176C33.6917 53.4305 33.6862 48.8452 33.6862 44.258C33.6862 43.8 33.8141 43.6684 34.2696 43.6486C36.9688 43.535 39.0106 41.5317 39.1727 38.8288C39.1925 38.4916 39.1727 38.1508 39.1619 37.8119C39.1529 37.4909 39.3131 37.2998 39.6301 37.2817C41.7818 37.1519 43.9317 37.0239 46.0834 36.8959C46.4273 36.876 46.7713 36.8526 47.117 36.8328Z" fill="black"/>
<path id="Vector_6" d="M52.5838 49.6439C52.5838 52.7867 52.5838 55.9277 52.5838 59.0706C52.5838 59.5953 52.4613 59.7143 51.932 59.7143C50.5185 59.7143 49.105 59.7143 47.6915 59.7143C47.3026 59.7143 47.0631 59.3915 47.2324 59.067C47.2936 58.948 47.4502 58.8236 47.5799 58.8037C48.7953 58.6126 49.8288 57.5181 49.8288 56.0395C49.8288 51.2973 49.8252 46.5569 49.8234 41.8147C49.8234 41.2413 49.8234 40.6679 49.8234 40.0945C49.8234 39.6942 49.9927 39.5248 50.3888 39.5229C50.9326 39.5229 51.4764 39.5229 52.022 39.5229C52.4235 39.5229 52.5838 39.6852 52.5838 40.0891C52.5838 43.2734 52.5838 46.4578 52.5838 49.6421V49.6439Z" fill="black"/>
<path id="Vector_7" d="M11.8919 49.6242C11.8909 49.6242 11.8901 49.6234 11.8901 49.6224C11.8901 46.4946 11.8901 43.3686 11.8901 40.2408C11.8901 40.1777 11.8901 40.1127 11.8901 40.0496C11.8973 39.698 12.0612 39.5285 12.4105 39.5249C12.9831 39.5213 13.5557 39.5213 14.1283 39.5249C14.4722 39.5267 14.6451 39.7034 14.6469 40.0532C14.6505 40.6681 14.6469 41.2848 14.6469 41.8996C14.6469 46.5769 14.6469 51.2542 14.6469 55.9315C14.6469 56.7051 14.8539 57.3993 15.3833 57.9745C15.783 58.4072 16.271 58.6903 16.858 58.7859C17.1533 58.8345 17.3118 59.0185 17.292 59.2889C17.2722 59.5594 17.0939 59.7127 16.7878 59.7145C15.3383 59.7145 13.8906 59.7145 12.4411 59.7145C12.054 59.7145 11.8937 59.5522 11.8937 59.1555C11.8937 56.9052 11.8937 54.6549 11.8937 52.4046C11.8937 51.4784 11.8937 50.5522 11.8937 49.626C11.8937 49.625 11.8929 49.6242 11.8919 49.6242Z" fill="black"/>
<path id="Vector_8" d="M32.1711 38.1769C32.1707 38.1773 32.171 38.1778 32.1714 38.1778C33.3378 38.1778 34.5024 38.1778 35.6687 38.1778C36.0631 38.1778 36.2395 38.3509 36.2413 38.7422C36.2431 39.1028 36.2449 39.4635 36.2413 39.8241C36.2341 40.5183 35.7858 40.9258 35.0961 40.9204C33.1389 40.9096 31.1816 40.9096 29.2244 40.9204C28.5653 40.924 28.1008 40.5075 28.0918 39.8493C28.0864 39.4671 28.0882 39.0848 28.0918 38.7025C28.0954 38.3437 28.2664 38.176 28.632 38.176C29.8109 38.176 30.9917 38.176 32.1707 38.176C32.1712 38.176 32.1714 38.1766 32.1711 38.1769Z" fill="black"/>
<path id="Vector_9" d="M32.1612 35.5138C32.1612 35.5143 32.1608 35.5147 32.1603 35.5147C30.9956 35.5147 29.8309 35.5147 28.6662 35.5147C28.2412 35.5147 28.0936 35.365 28.0918 34.9413C28.0918 34.871 28.0918 34.8007 28.0918 34.7285C28.0954 34.3535 28.2611 34.1858 28.6374 34.1858C30.989 34.1858 33.3406 34.1858 35.6922 34.1858C36.0559 34.1858 36.2377 34.3679 36.2431 34.7321C36.2431 34.788 36.2431 34.8457 36.2431 34.9016C36.2431 35.365 36.0955 35.5129 35.6363 35.5129C34.4788 35.5129 33.3214 35.5129 32.1621 35.5129C32.1616 35.5129 32.1612 35.5133 32.1612 35.5138Z" fill="black"/>
<path id="Vector_10" d="M19.4994 7.43119C19.6529 7.59269 19.627 7.88293 19.4897 8.05851C19.4808 8.06988 19.4715 8.08078 19.4615 8.09114C19.0906 8.47881 18.7089 8.85746 18.3254 9.23431C18.1039 9.45249 17.85 9.45429 17.6303 9.23792C17.2414 8.85566 16.8579 8.46979 16.4761 8.08212C16.2691 7.87115 16.2637 7.61511 16.4689 7.40415C16.8543 7.00926 17.2432 6.61799 17.6375 6.23392C17.8356 6.04099 18.0859 6.02656 18.2857 6.21589C18.6999 6.61077 19.1014 7.01828 19.4994 7.43119Z" fill="black"/>
<path id="Vector_11" d="M48.1192 7.74858C48.1186 7.74858 48.1181 7.74889 48.1178 7.74938C48.0479 7.87354 48.0065 7.9994 47.9256 8.08576C47.5529 8.47343 47.1729 8.85209 46.7894 9.22894C46.5517 9.46334 46.305 9.45613 46.0656 9.21812C45.6892 8.84487 45.3147 8.46982 44.942 8.09297C44.7241 7.87299 44.7187 7.61875 44.933 7.40057C45.3129 7.0111 45.6982 6.62704 46.0872 6.24477C46.2978 6.03741 46.5571 6.03561 46.766 6.23936C47.1603 6.62523 47.5511 7.01471 47.9328 7.41139C48.0133 7.49561 48.0529 7.62255 48.1206 7.74622C48.1212 7.74728 48.1204 7.74858 48.1192 7.74858Z" fill="black"/>
<path id="Vector_12" d="M53.773 21.9995C53.7724 22.0001 53.7721 22.0009 53.7721 22.0017C53.7721 22.2771 53.7757 22.5526 53.7721 22.828C53.7667 23.1238 53.5902 23.3059 53.2967 23.3077C52.7457 23.3131 52.1947 23.3131 51.6437 23.3077C51.3665 23.3041 51.1792 23.1147 51.1774 22.8371C51.172 22.2781 51.172 21.7191 51.1774 21.1602C51.1792 20.9005 51.352 20.7112 51.6131 20.7076C52.1929 20.6968 52.7709 20.6968 53.3507 20.7076C53.6064 20.713 53.7649 20.8933 53.7721 21.1493C53.7793 21.432 53.7721 21.7147 53.7739 21.9973C53.7739 21.9982 53.7735 21.9989 53.773 21.9995Z" fill="black"/>
<path id="Vector_13" d="M34.3609 18.6852C34.3615 18.6858 34.3618 18.6866 34.3619 18.6873C34.3742 19.0061 34.2805 19.3374 34.0629 19.649C33.611 20.2891 33.1842 20.949 32.7449 21.5981C32.4694 22.0075 32.1093 21.9948 31.8446 21.5729C31.443 20.9328 31.0541 20.2837 30.6364 19.6544C30.2168 19.0233 30.2402 18.367 30.5211 17.716C30.8902 16.8668 31.8464 16.4034 32.7233 16.5981C33.724 16.8198 34.3595 17.609 34.36 18.683C34.36 18.6838 34.3603 18.6846 34.3609 18.6852Z" fill="black"/>
</g>
<g id="Group_3">
<path id="Vector_14" d="M24.1433 77.1199C23.9507 77.3237 23.686 77.4247 23.3511 77.4247C23.0342 77.4247 22.7839 77.3237 22.5984 77.1199C22.413 76.918 22.3211 76.6583 22.3211 76.341C22.3211 75.8002 22.7595 75.3619 23.3002 75.3619H23.3511C23.686 75.3619 23.9507 75.4502 24.1433 75.6269C24.3378 75.8019 24.4026 76.0561 24.4026 76.3572C24.4026 76.6746 24.3378 76.918 24.1433 77.1199ZM28.7277 73.337C28.1731 72.448 27.4204 71.7502 26.4679 71.249C25.5172 70.7459 24.4783 70.4935 23.3511 70.4935H16.4818C16.118 70.4935 15.8227 70.7892 15.8227 71.1534V74.7001C15.8227 75.0644 16.118 75.3601 16.4818 75.3601H16.8527C17.2164 75.3601 17.5117 75.6558 17.5117 76.02V76.7882C17.5117 76.9649 17.4631 77.1055 17.3659 77.2119C17.2686 77.3165 17.1336 77.3706 16.9571 77.3706H13.9987C13.8223 77.3706 13.6854 77.3165 13.5882 77.2119C13.4927 77.1055 13.4441 76.9649 13.4441 76.7882V68.4541C13.4441 68.0899 13.1488 67.7942 12.7851 67.7942H9.29734C8.93361 67.7942 8.63831 68.0899 8.63831 68.4541V68.9843C8.63831 69.3485 8.34301 69.6442 7.97929 69.6442H7.60837C6.46318 69.6442 5.41523 69.8948 4.46451 70.3979C3.51379 70.901 2.75573 71.597 2.19214 72.4877C1.62855 73.3785 1.34766 74.3792 1.34766 75.4899C1.34766 76.6006 1.62855 77.632 2.19214 78.5859C2.75573 79.5379 3.51739 80.2952 4.47711 80.8596C5.43683 81.424 6.48119 81.7071 7.60837 81.7071C8.49606 81.7071 9.31174 81.5286 10.059 81.1733C10.3075 81.0543 10.6046 81.0886 10.8026 81.2797C11.0007 81.4709 11.2078 81.6349 11.4365 81.7864C12.1585 82.2624 13.012 82.5004 13.9987 82.5004H16.9571C18.0123 82.5004 18.882 82.239 19.5662 81.7143C19.7841 81.5466 20.083 81.5502 20.3152 81.6963C20.3279 81.7035 20.3405 81.7125 20.3513 81.7197C21.2408 82.2751 22.2401 82.5527 23.3493 82.5527C24.4584 82.5527 25.5154 82.2714 26.4661 81.7071C27.4186 81.1427 28.1713 80.389 28.7259 79.4442C29.2805 78.5011 29.5578 77.4661 29.5578 76.3374C29.5578 75.2086 29.2805 74.2259 28.7259 73.3334L28.7277 73.337ZM8.63831 75.4935C8.63831 75.8109 8.54468 76.0723 8.36102 76.2743C8.17556 76.478 7.92527 76.579 7.60837 76.579C7.27345 76.579 7.00876 76.478 6.8143 76.2743C6.62163 76.0723 6.5244 75.8109 6.5244 75.4935C6.5244 75.1942 6.62163 74.9562 6.8143 74.7795C7.00876 74.6028 7.27345 74.5144 7.60837 74.5144H7.65922C8.19996 74.5144 8.63831 74.9528 8.63831 75.4935Z" fill="black"/>
<path id="Vector_15" d="M45.2159 71.0234C45.5832 71.0234 45.8821 71.3228 45.8821 71.6906V77.1342C45.8821 78.1043 45.6444 78.9986 45.1691 79.8191C44.6937 80.6395 44.0509 81.2922 43.2406 81.7754C42.4304 82.2623 41.5337 82.5039 40.5469 82.5039H36.5838C36.2399 82.5039 35.9536 82.7618 35.9086 83.1043C35.8185 83.804 35.6781 84.4242 35.489 84.9634C35.1271 85.9857 34.4717 86.9161 33.521 87.7546C32.6801 88.4939 31.4899 89.2638 29.9504 90.0662C29.61 90.2429 29.1905 90.0968 29.0338 89.747L27.7374 86.8494C27.6006 86.5429 27.7122 86.1841 27.9967 86.0074C28.9654 85.4069 29.6605 84.9075 30.0854 84.5144C30.5788 84.0546 30.8831 83.6056 30.9983 83.1657C31.1117 82.7239 31.1694 82.0099 31.1694 81.0217V72.4317C31.1694 72.0638 31.4683 71.7645 31.8356 71.7645H35.3612C35.7285 71.7645 36.0274 72.0638 36.0274 72.4317V76.7898C36.0274 76.9665 36.076 77.1072 36.1733 77.2136C36.2705 77.3181 36.4055 77.3722 36.582 77.3722H40.4929C40.6334 77.3722 40.7558 77.3181 40.862 77.2136C40.9683 77.1072 41.0205 76.9755 41.0205 76.8169V71.6906C41.0205 71.3228 41.3194 71.0234 41.6867 71.0234H45.2123H45.2159Z" fill="black"/>
<path id="Vector_16" d="M41.7894 65.964V67.7509C41.7894 68.3892 42.3062 68.9085 42.9454 68.9085H44.7298C45.3672 68.9085 45.8858 68.391 45.8858 67.7509V65.964C45.8858 65.3257 45.369 64.8064 44.7298 64.8064H42.9454C42.308 64.8064 41.7894 65.3239 41.7894 65.964ZM37.6948 65.964V67.7509C37.6948 68.3892 38.2116 68.9085 38.8508 68.9085H40.6352C41.2726 68.9085 41.7912 68.391 41.7912 67.7509V65.964C41.7912 65.3257 41.2744 64.8064 40.6352 64.8064H38.8508C38.2134 64.8064 37.6948 65.3239 37.6948 65.964Z" fill="black"/>
<path id="Vector_17" d="M56.3258 70.333C56.6955 70.7261 57.3142 70.7446 57.7067 70.3742L57.7447 70.3384C57.9878 70.1094 58.1192 69.8624 58.1408 69.6009C58.1606 69.3395 58.0688 69.0996 57.8635 68.8815C57.6456 68.6507 57.3972 68.5281 57.1181 68.5136C56.8372 68.4992 56.5761 68.6074 56.333 68.8364C56.1025 69.0546 55.9891 69.2998 55.9927 69.5739C55.9963 69.8479 56.1079 70.1004 56.3258 70.333ZM52.8983 78.8167C52.8979 78.8167 52.8976 78.8162 52.8978 78.8158C53.5225 77.4999 54.1076 76.4111 54.6548 75.5476C54.7016 75.4739 54.6798 75.3762 54.6062 75.3294L53.9148 74.8895C52.9623 74.2854 52.2204 73.5155 51.6856 72.5815C51.1508 71.6475 50.888 70.6557 50.8952 69.6045C50.9024 68.5551 51.2049 67.5616 51.7991 66.6222C52.4023 65.6701 53.1963 64.9416 54.1831 64.4386C55.168 63.9373 56.207 63.7029 57.2999 63.7408C58.3929 63.7768 59.4156 64.0978 60.3664 64.7018C61.3027 65.2969 61.9977 66.0668 62.4533 67.0134C62.907 67.9601 63.0907 68.9698 63.006 70.0427C62.9214 71.1155 62.5757 72.1289 61.9725 73.0827L60.8831 74.8029L59.7938 76.5231C58.9169 77.9079 58.148 79.2206 57.4872 80.4611C57.1091 81.1697 56.7705 81.8838 56.468 82.6032C56.0989 83.4831 55.0942 83.9033 54.2191 83.5264L53.0253 83.0125C52.2132 82.6627 51.8009 81.7539 52.0656 80.9083C52.2744 80.245 52.5515 79.5474 52.8989 78.8175C52.899 78.8171 52.8988 78.8167 52.8983 78.8167Z" fill="black"/>
<path id="Vector_18" d="M56.3258 70.333C56.6955 70.7261 57.3142 70.7446 57.7067 70.3742L57.7447 70.3384C57.9878 70.1094 58.1192 69.8624 58.1408 69.6009C58.1606 69.3395 58.0688 69.0996 57.8635 68.8815C57.6456 68.6507 57.3972 68.5281 57.1181 68.5136C56.8372 68.4992 56.5761 68.6074 56.333 68.8364C56.1025 69.0546 55.9891 69.2998 55.9927 69.5739C55.9963 69.8479 56.1079 70.1004 56.3258 70.333ZM52.8983 78.8167C52.8979 78.8167 52.8976 78.8162 52.8978 78.8158C53.5225 77.4999 54.1076 76.4111 54.6548 75.5476C54.7016 75.4739 54.6798 75.3762 54.6062 75.3294L53.9148 74.8895C52.9623 74.2854 52.2204 73.5155 51.6856 72.5815C51.1508 71.6475 50.888 70.6557 50.8952 69.6045C50.9024 68.5551 51.2049 67.5616 51.7991 66.6222C52.4023 65.6701 53.1963 64.9416 54.1831 64.4386C55.168 63.9373 56.207 63.7029 57.2999 63.7408C58.3929 63.7768 59.4156 64.0978 60.3664 64.7018C61.3027 65.2969 61.9977 66.0668 62.4533 67.0134C62.907 67.9601 63.0907 68.9698 63.006 70.0427C62.9214 71.1155 62.5757 72.1289 61.9725 73.0827L60.8831 74.8029L59.7938 76.5231C58.9169 77.9079 58.148 79.2206 57.4872 80.4611C57.1091 81.1697 56.7705 81.8838 56.468 82.6032C56.0989 83.4831 55.0942 83.9033 54.2191 83.5264L53.0253 83.0125C52.2132 82.6627 51.8009 81.7539 52.0656 80.9083C52.2744 80.245 52.5515 79.5474 52.8989 78.8175C52.899 78.8171 52.8988 78.8167 52.8983 78.8167Z" fill="black"/>
</g>
</g>
<g id="Group_4" opacity="0.91">
<g id="Group_5">
<path id="Vector_19" d="M10.1616 21.4467C10.1616 21.4472 10.1623 21.4474 10.1625 21.4469C10.2994 21.1975 10.5097 21.1114 10.79 21.1186C11.2564 21.1312 11.7227 21.1204 12.1891 21.1222C12.6014 21.124 12.7671 21.2899 12.7689 21.7028C12.7707 22.1914 12.7707 22.6801 12.7689 23.1669C12.7671 23.5708 12.6014 23.7367 12.2035 23.7367C11.7227 23.7367 11.242 23.7277 10.7612 23.7403C10.2771 23.7528 10.1616 23.1478 10.1616 22.6635V21.4467Z" fill="#0E38A4"/>
<path id="Vector_20" d="M32.7225 0.89432C32.7229 0.894684 32.7233 0.894982 32.7238 0.895195C32.9771 1.01062 33.0814 1.19986 33.0724 1.48269C33.058 1.97674 33.0706 2.4708 33.067 2.96666C33.0652 3.32908 32.8959 3.50038 32.5358 3.50399C32.0208 3.50939 31.5058 3.50759 30.9909 3.50399C30.6344 3.50038 30.4687 3.32728 30.4669 2.96305C30.4651 2.46899 30.4777 1.97314 30.4615 1.47908C30.4603 1.44078 30.461 1.40413 30.4639 1.36911C30.4976 0.957586 31.0253 0.893066 31.4382 0.893066H32.7195C32.7206 0.893066 32.7217 0.893518 32.7225 0.89432Z" fill="#0E38A4"/>
<path id="Vector_21" d="M33.726 31.5291C33.725 31.5284 33.724 31.5279 33.7228 31.5275C33.6873 31.5153 33.6482 31.5101 33.6075 31.5101H31.8033C31.2667 31.5101 30.7301 31.5101 30.1935 31.5101C29.9937 31.5101 29.9433 31.4506 29.9072 31.3839C29.8658 31.3099 29.8388 31.2288 29.9487 31.0629C30.5303 30.1848 31.1118 29.3049 31.6934 28.4249C32.8764 26.6344 34.0991 24.7826 35.3109 22.9687C35.7754 22.2727 36.2562 21.5514 36.5425 20.7148C36.9494 19.5265 36.9926 18.5619 36.6811 17.6765C35.9879 15.7039 34.7527 14.5085 33.0097 14.1262C32.6154 14.0396 32.221 13.9946 31.8375 13.9946C30.0441 13.9946 28.51 14.9232 27.5178 16.6091C26.677 18.0372 26.6445 19.6059 27.4224 21.2665C27.6565 21.7678 27.9572 22.233 28.2489 22.6838C28.3551 22.8479 28.4596 23.0102 28.5622 23.1761C28.7026 23.4032 28.8503 23.6304 28.9943 23.8486C29.1438 24.0776 29.2986 24.3156 29.4427 24.55C29.729 25.0152 29.729 25.4588 29.4427 25.9042C28.4902 27.3845 27.5106 28.8847 26.5635 30.3362L26.1746 30.9331C26.1152 31.025 26.0377 31.0755 25.9567 31.0755C25.8883 31.0755 25.8181 31.0413 25.7514 30.9745C23.9004 29.0903 22.6202 26.7607 21.945 24.0488C21.52 22.343 21.3832 20.6499 21.5362 19.0199C21.8927 15.2279 23.697 12.3952 26.8966 10.6011C28.1517 9.89787 29.5993 9.48676 31.2001 9.38218C31.4612 9.36415 31.7223 9.35693 31.9779 9.35693C33.7641 9.35693 35.4441 9.78427 36.9746 10.6263C38.6546 11.5513 39.9816 12.9037 40.9216 14.6491C41.6166 15.9383 42.0397 17.3628 42.1802 18.8792C42.4323 21.5965 41.9785 24.2651 40.8315 26.8093C40.1509 28.3204 39.22 29.6961 38.0694 30.897C37.7453 31.2342 37.396 31.3983 36.9692 31.4109C36.1698 31.4361 35.3685 31.4686 34.569 31.4993L33.7346 31.5315C33.7316 31.5316 33.7286 31.5308 33.726 31.5291Z" fill="#0E38A4"/>
<path id="Vector_22" d="M16.9086 37.262C16.9086 37.263 16.9093 37.2638 16.9104 37.2639C17.6534 37.3071 18.3856 37.3485 19.1179 37.3918C20.6682 37.4855 22.2203 37.5793 23.7707 37.6731C23.9543 37.6839 24.138 37.6983 24.3199 37.7091C24.7412 37.7326 24.9123 37.9183 24.8672 38.3312C24.7898 39.0308 24.8618 39.716 25.0473 40.3886C25.6109 42.4315 27.3251 43.8614 29.4264 44.0489C29.5812 44.0633 29.7361 44.0723 29.8909 44.0832C30.17 44.1012 30.3411 44.2779 30.3501 44.561C30.3501 44.5971 30.3501 44.6313 30.3501 44.6674C30.3501 49.2599 30.3501 53.8525 30.3465 58.4432C30.3465 58.5767 30.3177 58.7299 30.251 58.8417C30.1286 59.0455 29.8999 59.0635 29.628 58.9625C28.4054 58.5081 27.1936 58.0213 25.953 57.6228C23.9651 56.9863 21.9196 56.595 19.8417 56.3967C19.0189 56.3191 18.1942 56.2813 17.3695 56.2308C17.0652 56.2128 16.8887 56.0451 16.8707 55.7385C16.8671 55.6754 16.8707 55.6105 16.8707 55.5474C16.8707 49.6187 16.8707 43.6883 16.8707 37.7596C16.8707 37.6028 16.8942 37.4441 16.9086 37.262Z" fill="#0E38A4"/>
<path id="Vector_23" d="M46.6902 37.262C46.6923 37.262 46.694 37.2635 46.6941 37.2656C46.7085 37.4316 46.728 37.5677 46.728 37.7019C46.728 43.6829 46.728 49.6638 46.728 55.643C46.728 56.0793 46.5822 56.2182 46.1428 56.2326C42.8243 56.339 39.5886 56.9142 36.4502 58.0033C35.6309 58.2882 34.8224 58.6055 34.0265 58.9499C33.5638 59.15 33.2505 58.8706 33.2505 58.4468C33.2649 53.8597 33.2595 49.2744 33.2595 44.6872C33.2595 44.2292 33.3873 44.0976 33.8429 44.0778C36.542 43.9642 38.5839 41.9609 38.7459 39.258C38.7657 38.9208 38.7459 38.58 38.7351 38.2411C38.7261 37.9201 38.8864 37.729 39.2033 37.7109C41.355 37.5811 43.5049 37.4531 45.6567 37.3251C46.0006 37.3052 46.3445 37.2818 46.6902 37.262Z" fill="#0E38A4"/>
<path id="Vector_24" d="M52.159 50.0733C52.159 53.2161 52.159 56.3572 52.159 59.5C52.159 60.0247 52.0365 60.1437 51.5072 60.1437C50.0937 60.1437 48.6802 60.1437 47.2667 60.1437C46.8778 60.1437 46.6383 59.821 46.8076 59.4964C46.8688 59.3774 47.0254 59.253 47.1551 59.2332C48.3705 59.042 49.404 57.9475 49.404 56.469C49.404 51.7268 49.4004 46.9864 49.3986 42.2442C49.3986 41.6708 49.3986 41.0974 49.3986 40.524C49.3986 40.1237 49.5679 39.9542 49.964 39.9524C50.5078 39.9524 51.0516 39.9524 51.5972 39.9524C51.9987 39.9524 52.159 40.1147 52.159 40.5186C52.159 43.7029 52.159 46.8872 52.159 50.0715V50.0733Z" fill="#0E38A4"/>
<path id="Vector_25" d="M11.4652 50.0514C11.4642 50.0514 11.4634 50.0506 11.4634 50.0496C11.4634 46.9218 11.4634 43.7958 11.4634 40.668C11.4634 40.6049 11.4634 40.54 11.4634 40.4769C11.4706 40.1253 11.6344 39.9558 11.9838 39.9522C12.5563 39.9486 13.1289 39.9486 13.7015 39.9522C14.0454 39.954 14.2183 40.1307 14.2201 40.4805C14.2237 41.0953 14.2201 41.712 14.2201 42.3269C14.2201 47.0042 14.2201 51.6815 14.2201 56.3588C14.2201 57.1323 14.4272 57.8265 14.9566 58.4017C15.3563 58.8344 15.8443 59.1175 16.4313 59.2131C16.7266 59.2618 16.885 59.4457 16.8652 59.7162C16.8454 59.9866 16.6671 60.1399 16.361 60.1417C14.9115 60.1417 13.4639 60.1417 12.0144 60.1417C11.6272 60.1417 11.467 59.9794 11.467 59.5827C11.467 57.3324 11.467 55.0822 11.467 52.8319C11.467 51.9057 11.467 50.9795 11.467 50.0532C11.467 50.0523 11.4662 50.0514 11.4652 50.0514Z" fill="#0E38A4"/>
<path id="Vector_26" d="M31.7463 38.6064C31.7459 38.6067 31.7462 38.6073 31.7466 38.6073C32.913 38.6073 34.0776 38.6073 35.2439 38.6073C35.6383 38.6073 35.8147 38.7804 35.8165 39.1716C35.8183 39.5323 35.8201 39.8929 35.8165 40.2535C35.8093 40.9477 35.361 41.3552 34.6713 41.3498C32.7141 41.339 30.7568 41.339 28.7996 41.3498C28.1405 41.3534 27.676 40.9369 27.667 40.2788C27.6616 39.8965 27.6634 39.5142 27.667 39.132C27.6706 38.7732 27.8416 38.6055 28.2072 38.6055C29.3861 38.6055 30.5669 38.6055 31.7459 38.6055C31.7464 38.6055 31.7466 38.606 31.7463 38.6064Z" fill="#0E38A4"/>
<path id="Vector_27" d="M31.7349 35.9413C31.7349 35.9418 31.7345 35.9422 31.734 35.9422C30.5693 35.9422 29.4046 35.9422 28.2399 35.9422C27.815 35.9422 27.6673 35.7925 27.6655 35.3688C27.6655 35.2985 27.6655 35.2281 27.6655 35.156C27.6691 34.781 27.8348 34.6133 28.2111 34.6133C30.5627 34.6133 32.9143 34.6133 35.2659 34.6133C35.6296 34.6133 35.8115 34.7954 35.8169 35.1596C35.8169 35.2155 35.8169 35.2732 35.8169 35.3291C35.8169 35.7925 35.6692 35.9404 35.2101 35.9404C34.0526 35.9404 32.8951 35.9404 31.7358 35.9404C31.7353 35.9404 31.7349 35.9408 31.7349 35.9413Z" fill="#0E38A4"/>
<path id="Vector_28" d="M19.0746 7.86039C19.2281 8.02189 19.2022 8.31213 19.0649 8.48771C19.056 8.49908 19.0467 8.50998 19.0367 8.52033C18.6658 8.908 18.2841 9.28666 17.9006 9.66351C17.6791 9.88169 17.4252 9.88349 17.2055 9.66712C16.8166 9.28486 16.4331 8.89899 16.0513 8.51132C15.8443 8.30035 15.8389 8.04431 16.0441 7.83335C16.4295 7.43846 16.8184 7.04718 17.2127 6.66312C17.4108 6.47019 17.6611 6.45576 17.8609 6.64509C18.2751 7.03997 18.6766 7.44748 19.0746 7.86039Z" fill="#0E38A4"/>
<path id="Vector_29" d="M47.6924 8.17778C47.6919 8.17778 47.6913 8.17809 47.691 8.17858C47.6211 8.30274 47.5797 8.4286 47.4988 8.51496C47.1261 8.90263 46.7462 9.28129 46.3627 9.65814C46.125 9.89254 45.8783 9.88533 45.6388 9.64732C45.2625 9.27407 44.888 8.89902 44.5152 8.52217C44.2974 8.30219 44.292 8.04795 44.5062 7.82977C44.8862 7.4403 45.2715 7.05623 45.6604 6.67397C45.8711 6.46661 46.1304 6.46481 46.3392 6.66856C46.7336 7.05443 47.1243 7.44391 47.506 7.84059C47.5866 7.9248 47.6262 8.05175 47.6938 8.17542C47.6944 8.17648 47.6936 8.17778 47.6924 8.17778Z" fill="#0E38A4"/>
<path id="Vector_30" d="M53.3462 22.4285C53.3456 22.429 53.3453 22.4298 53.3453 22.4306C53.3453 22.7061 53.3489 22.9815 53.3453 23.257C53.3399 23.5527 53.1635 23.7348 52.87 23.7366C52.319 23.742 51.768 23.742 51.217 23.7366C50.9397 23.733 50.7524 23.5437 50.7506 23.266C50.7452 22.707 50.7452 22.1481 50.7506 21.5891C50.7524 21.3295 50.9253 21.1401 51.1864 21.1365C51.7662 21.1257 52.3442 21.1257 52.924 21.1365C53.1797 21.1419 53.3381 21.3223 53.3453 21.5783C53.3525 21.861 53.3453 22.1436 53.3471 22.4263C53.3471 22.4271 53.3468 22.4279 53.3462 22.4285Z" fill="#0E38A4"/>
<path id="Vector_31" d="M33.9342 19.1147C33.9347 19.1152 33.9351 19.116 33.9351 19.1168C33.9474 19.4356 33.8537 19.7669 33.6362 20.0784C33.1842 20.7185 32.7575 21.3785 32.3181 22.0276C32.0426 22.4369 31.6825 22.4243 31.4178 22.0023C31.0163 21.3622 30.6273 20.7131 30.2096 20.0838C29.7901 19.4527 29.8135 18.7964 30.0944 18.1455C30.4635 17.2962 31.4196 16.8328 32.2965 17.0275C33.2972 17.2492 33.9327 18.0384 33.9333 19.1124C33.9333 19.1133 33.9336 19.1141 33.9342 19.1147Z" fill="#0E38A4"/>
</g>
<g id="Group_6">
<path id="Vector_32" d="M23.7166 77.5491C23.5221 77.7529 23.2592 77.8539 22.9243 77.8539C22.6074 77.8539 22.3571 77.7529 22.1717 77.5491C21.9862 77.3454 21.8944 77.0875 21.8944 76.7702C21.8944 76.2294 22.3327 75.7911 22.8735 75.7911H22.9243C23.2592 75.7911 23.5239 75.8812 23.7166 76.0561C23.9092 76.231 23.9759 76.4853 23.9759 76.7864C23.9759 77.1038 23.911 77.3472 23.7166 77.5491ZM28.3009 73.7662C27.7463 72.8772 26.9937 72.1794 26.0412 71.6782C25.0904 71.1751 24.0515 70.9227 22.9243 70.9227H16.055C15.6913 70.9227 15.396 71.2184 15.396 71.5826V75.1293C15.396 75.4936 15.6913 75.7893 16.055 75.7893H16.4259C16.7896 75.7893 17.0849 76.085 17.0849 76.4492V77.2174C17.0849 77.3941 17.0363 77.5347 16.9391 77.6411C16.8419 77.7475 16.7068 77.7998 16.5304 77.7998H13.572C13.3955 77.7998 13.2569 77.7457 13.1614 77.6411C13.066 77.5365 13.0174 77.3941 13.0174 77.2174V68.8833C13.0174 68.5191 12.7221 68.2234 12.3584 68.2234H8.87058C8.50685 68.2234 8.21156 68.5191 8.21156 68.8833V69.4134C8.21156 69.7777 7.91626 70.0734 7.55253 70.0734H7.18161C6.03642 70.0734 4.98847 70.324 4.03775 70.8271C3.08703 71.3302 2.32897 72.0262 1.76538 72.9169C1.20179 73.8077 0.920898 74.8084 0.920898 75.9191C0.920898 77.0298 1.20179 78.0612 1.76538 79.0151C2.32897 79.9671 3.09063 80.7244 4.05035 81.2888C5.01008 81.8532 6.05443 82.1363 7.18161 82.1363C8.06931 82.1363 8.88498 81.9578 9.63223 81.6025C9.88072 81.4835 10.1778 81.5178 10.3759 81.7089C10.574 81.9001 10.781 82.0641 11.0097 82.2156C11.7317 82.6916 12.5852 82.9296 13.572 82.9296H16.5304C17.5855 82.9296 18.4552 82.6682 19.1394 82.1435C19.3573 81.9758 19.6562 81.9794 19.8885 82.1255C19.9011 82.1327 19.9137 82.1417 19.9245 82.1489C20.814 82.7043 21.8133 82.9819 22.9225 82.9819C24.0317 82.9819 25.0886 82.7006 26.0394 82.1363C26.9919 81.5719 27.7445 80.8182 28.2991 79.8734C28.8537 78.9303 29.131 77.8953 29.131 76.7666C29.131 75.6378 28.8537 74.6551 28.2991 73.7626L28.3009 73.7662ZM8.21156 75.9227C8.21156 76.2401 8.11792 76.5015 7.93426 76.7035C7.7488 76.9072 7.49851 77.0082 7.18161 77.0082C6.84669 77.0082 6.58201 76.9072 6.38754 76.7035C6.19488 76.5015 6.09764 76.2401 6.09764 75.9227C6.09764 75.6234 6.19488 75.3854 6.38754 75.2087C6.58021 75.032 6.84669 74.9436 7.18161 74.9436H7.23246C7.7732 74.9436 8.21156 75.382 8.21156 75.9227Z" fill="#0E38A4"/>
<path id="Vector_33" d="M44.7891 71.4529C45.1565 71.4529 45.4554 71.7522 45.4554 72.12V77.5637C45.4554 78.5337 45.2177 79.4281 44.7423 80.2485C44.267 81.0689 43.6242 81.7217 42.8139 82.2049C42.0036 82.6917 41.1069 82.9333 40.1202 82.9333H36.157C35.8131 82.9333 35.5268 83.1912 35.4818 83.5338C35.3918 84.2334 35.2513 84.8537 35.0623 85.3928C34.7003 86.4152 34.0449 87.3456 33.0942 88.184C32.2533 88.9233 31.0631 89.6932 29.5236 90.4956C29.1833 90.6723 28.7637 90.5263 28.6071 90.1765L27.3107 87.2789C27.1738 86.9723 27.2854 86.6135 27.5699 86.4368C28.5387 85.8364 29.2337 85.3369 29.6586 84.9438C30.152 84.484 30.4581 84.0351 30.5716 83.5951C30.685 83.1551 30.7426 82.4393 30.7426 81.4512V72.8611C30.7426 72.4933 31.0415 72.194 31.4088 72.194H34.9344C35.3017 72.194 35.6006 72.4933 35.6006 72.8611V77.2193C35.6006 77.396 35.6493 77.5366 35.7465 77.643C35.8437 77.7494 35.9788 77.8017 36.1552 77.8017H40.0662C40.2066 77.8017 40.329 77.7476 40.4353 77.643C40.5415 77.5384 40.5937 77.405 40.5937 77.2463V72.12C40.5937 71.7522 40.8926 71.4529 41.26 71.4529H44.7855H44.7891Z" fill="#0E38A4"/>
<path id="Vector_34" d="M41.3626 66.393V68.1799C41.3626 68.8182 41.8794 69.3375 42.5186 69.3375H44.303C44.9405 69.3375 45.459 68.82 45.459 68.1799V66.393C45.459 65.7547 44.9423 65.2354 44.303 65.2354H42.5186C41.8812 65.2354 41.3626 65.7528 41.3626 66.393ZM37.2681 66.393V68.1799C37.2681 68.8182 37.7848 69.3375 38.4241 69.3375H40.2085C40.8459 69.3375 41.3644 68.82 41.3644 68.1799V66.393C41.3644 65.7547 40.8477 65.2354 40.2085 65.2354H38.4241C37.7866 65.2354 37.2681 65.7528 37.2681 66.393Z" fill="#0E38A4"/>
<path id="Vector_35" d="M55.8985 70.7622C56.2683 71.1553 56.8869 71.1738 57.2795 70.8034L57.3174 70.7676C57.5605 70.5386 57.6919 70.2916 57.7136 70.0301C57.7334 69.7687 57.6415 69.5288 57.4363 69.3107C57.2184 69.0799 56.9699 68.9573 56.6908 68.9428C56.4099 68.9284 56.1488 69.0366 55.9057 69.2656C55.6753 69.4838 55.5618 69.729 55.5654 70.0031C55.569 70.2771 55.6807 70.5296 55.8985 70.7622ZM52.4711 79.2459C52.4707 79.2459 52.4704 79.2454 52.4706 79.245C53.0952 77.9291 53.6803 76.8403 54.2276 75.9768C54.2743 75.9031 54.2526 75.8054 54.1789 75.7586L53.4875 75.3187C52.535 74.7146 51.7932 73.9447 51.2584 73.0107C50.7236 72.0767 50.4607 71.0849 50.4679 70.0337C50.4751 68.9843 50.7776 67.9908 51.3718 67.0514C51.975 66.0993 52.7691 65.3709 53.7558 64.8678C54.7408 64.3665 55.7797 64.1321 56.8727 64.17C57.9656 64.206 58.9884 64.527 59.9391 65.131C60.8754 65.7261 61.5705 66.496 62.026 67.4426C62.4798 68.3893 62.6634 69.399 62.5788 70.4719C62.4942 71.5447 62.1485 72.5581 61.5452 73.5119L60.4559 75.2321L59.3665 76.9523C58.4896 78.3371 57.7208 79.6498 57.0599 80.8903C56.6818 81.5989 56.3433 82.313 56.0408 83.0324C55.6717 83.9123 54.6669 84.3325 53.7918 83.9556L52.598 83.4417C51.786 83.0919 51.3736 82.1832 51.6383 81.3375C51.8471 80.6742 52.1243 79.9766 52.4716 79.2467C52.4718 79.2463 52.4715 79.2459 52.4711 79.2459Z" fill="#0E38A4"/>
<path id="Vector_36" d="M55.8985 70.7622C56.2683 71.1553 56.8869 71.1738 57.2795 70.8034L57.3174 70.7676C57.5605 70.5386 57.6919 70.2916 57.7136 70.0301C57.7334 69.7687 57.6415 69.5288 57.4363 69.3107C57.2184 69.0799 56.9699 68.9573 56.6908 68.9428C56.4099 68.9284 56.1488 69.0366 55.9057 69.2656C55.6753 69.4838 55.5618 69.729 55.5654 70.0031C55.569 70.2771 55.6807 70.5296 55.8985 70.7622ZM52.4711 79.2459C52.4707 79.2459 52.4704 79.2454 52.4706 79.245C53.0952 77.9291 53.6803 76.8403 54.2276 75.9768C54.2743 75.9031 54.2526 75.8054 54.1789 75.7586L53.4875 75.3187C52.535 74.7146 51.7932 73.9447 51.2584 73.0107C50.7236 72.0767 50.4607 71.0849 50.4679 70.0337C50.4751 68.9843 50.7776 67.9908 51.3718 67.0514C51.975 66.0993 52.7691 65.3709 53.7558 64.8678C54.7408 64.3665 55.7797 64.1321 56.8727 64.17C57.9656 64.206 58.9884 64.527 59.9391 65.131C60.8754 65.7261 61.5705 66.496 62.026 67.4426C62.4798 68.3893 62.6634 69.399 62.5788 70.4719C62.4942 71.5447 62.1485 72.5581 61.5452 73.5119L60.4559 75.2321L59.3665 76.9523C58.4896 78.3371 57.7208 79.6498 57.0599 80.8903C56.6818 81.5989 56.3433 82.313 56.0408 83.0324C55.6717 83.9123 54.6669 84.3325 53.7918 83.9556L52.598 83.4417C51.786 83.0919 51.3736 82.1832 51.6383 81.3375C51.8471 80.6742 52.1243 79.9766 52.4716 79.2467C52.4718 79.2463 52.4715 79.2459 52.4711 79.2459Z" fill="#0E38A4"/>
</g>
</g>
<g id="Group_7">
<g id="Group_8">
<path id="Vector_37" d="M9.73438 21.8759C9.73438 21.8764 9.73502 21.8766 9.73525 21.8761C9.87212 21.6267 10.0825 21.5406 10.3628 21.5478C10.8291 21.5604 11.2955 21.5496 11.7619 21.5514C12.1742 21.5532 12.3399 21.7191 12.3417 22.132C12.3435 22.6206 12.3435 23.1093 12.3417 23.5961C12.3399 24 12.1742 24.1659 11.7763 24.1659C11.2955 24.1659 10.8147 24.1569 10.334 24.1695C9.84982 24.182 9.73438 23.577 9.73438 23.0927V21.8759Z" fill="#0097FF"/>
<path id="Vector_38" d="M32.2958 1.32352C32.2961 1.32388 32.2965 1.32418 32.297 1.32439C32.5504 1.43982 32.6546 1.62906 32.6456 1.91189C32.6312 2.40594 32.6438 2.9 32.6402 3.39585C32.6384 3.75828 32.4692 3.92958 32.109 3.93318C31.5941 3.93859 31.0791 3.93679 30.5641 3.93318C30.2076 3.92958 30.0419 3.75648 30.0401 3.39225C30.0383 2.89819 30.0509 2.40234 30.0347 1.90828C30.0335 1.86982 30.0343 1.83302 30.0372 1.79786C30.0711 1.38665 30.5984 1.32227 31.011 1.32227H32.2927C32.2939 1.32227 32.295 1.32272 32.2958 1.32352Z" fill="#0097FF"/>
<path id="Vector_39" d="M33.2988 31.9581C33.2978 31.9574 33.2967 31.9569 33.2956 31.9565C33.26 31.9443 33.221 31.939 33.1802 31.939H31.376C30.8395 31.939 30.3029 31.939 29.7663 31.939C29.5664 31.939 29.516 31.8795 29.48 31.8128C29.4386 31.7389 29.4116 31.6577 29.5214 31.4919C30.103 30.6137 30.6846 29.7338 31.2662 28.8539C32.4492 27.0634 33.6718 25.2116 34.8836 23.3976C35.3482 22.7016 35.8289 21.9804 36.1152 21.1437C36.5222 19.9555 36.5654 18.9908 36.2539 18.1055C35.5606 16.1329 34.3254 14.9374 32.5824 14.5551C32.1881 14.4686 31.7938 14.4235 31.4102 14.4235C29.6168 14.4235 28.0827 15.3521 27.0906 17.038C26.2497 18.4661 26.2173 20.0348 26.9952 21.6955C27.2292 22.1968 27.5299 22.662 27.8216 23.1128C27.9279 23.2768 28.0323 23.4391 28.1349 23.605C28.2754 23.8322 28.423 24.0594 28.5671 24.2776C28.7165 24.5066 28.8714 24.7446 29.0154 24.979C29.3017 25.4442 29.3017 25.8878 29.0154 26.3331C28.0629 27.8135 27.0834 29.3137 26.1363 30.7652L25.7473 31.362C25.6879 31.454 25.6105 31.5045 25.5295 31.5045C25.461 31.5045 25.3908 31.4702 25.3242 31.4035C23.4732 29.5192 22.1929 27.1896 21.5177 24.4777C21.0928 22.772 20.9559 21.0788 21.109 19.4488C21.4655 15.6568 23.2697 12.8241 26.4694 11.03C27.7244 10.3268 29.1721 9.91571 30.7728 9.81113C31.0339 9.7931 31.295 9.78589 31.5507 9.78589C33.3369 9.78589 35.0169 10.2132 36.5474 11.0553C38.2273 11.9803 39.5544 13.3326 40.4943 15.078C41.1893 16.3673 41.6125 17.7917 41.7529 19.3082C42.005 22.0255 41.5513 24.6941 40.4043 27.2383C39.7236 28.7493 38.7927 30.1251 37.6421 31.326C37.318 31.6632 36.9687 31.8272 36.542 31.8399C35.7425 31.8651 34.9412 31.8976 34.1418 31.9282L33.3074 31.9605C33.3043 31.9606 33.3013 31.9598 33.2988 31.9581Z" fill="#0097FF"/>
<path id="Vector_40" d="M16.4813 37.6895C16.4813 37.6905 16.4821 37.6913 16.4831 37.6914C17.2261 37.7346 17.9584 37.776 18.6907 37.8193C20.241 37.913 21.7931 38.0068 23.3434 38.1006C23.5271 38.1114 23.7107 38.1258 23.8926 38.1366C24.3139 38.1601 24.485 38.3458 24.44 38.7587C24.3626 39.4583 24.4346 40.1435 24.6201 40.8161C25.1836 42.859 26.8978 44.2889 28.9991 44.4764C29.154 44.4908 29.3088 44.4998 29.4637 44.5107C29.7428 44.5287 29.9138 44.7054 29.9228 44.9885C29.9228 45.0245 29.9228 45.0588 29.9228 45.0949C29.9228 49.6874 29.9228 54.28 29.9192 58.8707C29.9192 59.0041 29.8904 59.1574 29.8238 59.2692C29.7014 59.473 29.4727 59.491 29.2008 59.39C27.9782 58.9356 26.7664 58.4488 25.5258 58.0503C23.5379 57.4138 21.4924 57.0225 19.4145 56.8242C18.5916 56.7466 17.7669 56.7088 16.9423 56.6583C16.638 56.6403 16.4615 56.4726 16.4435 56.166C16.4399 56.1029 16.4435 56.038 16.4435 55.9749C16.4435 50.0462 16.4435 44.1158 16.4435 38.1871C16.4435 38.0302 16.4669 37.8716 16.4813 37.6895Z" fill="#0097FF"/>
<path id="Vector_41" d="M46.2635 37.6909C46.2655 37.6909 46.2672 37.6925 46.2674 37.6945C46.2817 37.8606 46.3013 37.9966 46.3013 38.1309C46.3013 44.1118 46.3013 50.0928 46.3013 56.0719C46.3013 56.5083 46.1554 56.6471 45.7161 56.6616C42.3976 56.7679 39.1619 57.3431 36.0234 58.4322C35.2041 58.7171 34.3957 59.0345 33.5998 59.3789C33.137 59.579 32.8237 59.2995 32.8237 58.8758C32.8381 54.2886 32.8327 49.7033 32.8327 45.1162C32.8327 44.6582 32.9606 44.5265 33.4161 44.5067C36.1152 44.3931 38.1571 42.3899 38.3192 39.687C38.339 39.3498 38.3192 39.009 38.3084 38.67C38.2994 38.3491 38.4596 38.1579 38.7765 38.1399C40.9283 38.0101 43.0782 37.882 45.2299 37.754C45.5738 37.7342 45.9177 37.7108 46.2635 37.6909Z" fill="#0097FF"/>
<path id="Vector_42" d="M51.7317 50.5023C51.7317 53.6451 51.7317 56.7861 51.7317 59.929C51.7317 60.4537 51.6093 60.5727 51.0799 60.5727C49.6664 60.5727 48.253 60.5727 46.8395 60.5727C46.4506 60.5727 46.2111 60.2499 46.3803 59.9254C46.4415 59.8064 46.5982 59.682 46.7278 59.6621C47.9433 59.471 48.9768 58.3765 48.9768 56.8979C48.9768 52.1557 48.9732 47.4153 48.9714 42.6731C48.9714 42.0997 48.9714 41.5263 48.9714 40.9529C48.9714 40.5526 49.1407 40.3832 49.5368 40.3813C50.0806 40.3813 50.6244 40.3813 51.1699 40.3813C51.5715 40.3813 51.7317 40.5436 51.7317 40.9475C51.7317 44.1318 51.7317 47.3161 51.7317 50.5005V50.5023Z" fill="#0097FF"/>
<path id="Vector_43" d="M11.0384 50.4806C11.0374 50.4806 11.0366 50.4798 11.0366 50.4788C11.0366 47.351 11.0366 44.225 11.0366 41.0972C11.0366 41.0341 11.0366 40.9692 11.0366 40.9061C11.0438 40.5545 11.2077 40.385 11.557 40.3814C12.1296 40.3778 12.7022 40.3778 13.2748 40.3814C13.6187 40.3832 13.7915 40.5599 13.7934 40.9097C13.797 41.5245 13.7934 42.1412 13.7934 42.7561C13.7934 47.4334 13.7934 52.1107 13.7934 56.788C13.7934 57.5615 14.0004 58.2557 14.5298 58.8309C14.9295 59.2636 15.4175 59.5467 16.0045 59.6423C16.2998 59.691 16.4582 59.8749 16.4384 60.1454C16.4186 60.4158 16.2404 60.5691 15.9343 60.5709C14.4848 60.5709 13.0371 60.5709 11.5876 60.5709C11.2005 60.5709 11.0402 60.4086 11.0402 60.0119C11.0402 57.7616 11.0402 55.5114 11.0402 53.2611C11.0402 52.3349 11.0402 51.4087 11.0402 50.4824C11.0402 50.4815 11.0394 50.4806 11.0384 50.4806Z" fill="#0097FF"/>
<path id="Vector_44" d="M31.3195 39.0336C31.3192 39.0339 31.3194 39.0345 31.3199 39.0345C32.4862 39.0345 33.6508 39.0345 34.8172 39.0345C35.2115 39.0345 35.388 39.2076 35.3898 39.5989C35.3916 39.9595 35.3934 40.3201 35.3898 40.6808C35.3826 41.375 34.9342 41.7825 34.2446 41.7771C32.2873 41.7662 30.3301 41.7662 28.3728 41.7771C27.7138 41.7807 27.2492 41.3642 27.2402 40.706C27.2348 40.3237 27.2366 39.9415 27.2402 39.5592C27.2438 39.2004 27.4149 39.0327 27.7804 39.0327C28.9594 39.0327 30.1402 39.0327 31.3191 39.0327C31.3196 39.0327 31.3198 39.0333 31.3195 39.0336Z" fill="#0097FF"/>
<path id="Vector_45" d="M31.3077 36.3705C31.3077 36.371 31.3073 36.3714 31.3068 36.3714C30.1421 36.3714 28.9774 36.3714 27.8127 36.3714C27.3877 36.3714 27.2401 36.2217 27.2383 35.798C27.2383 35.7277 27.2383 35.6573 27.2383 35.5852C27.2419 35.2102 27.4075 35.0425 27.7839 35.0425C30.1355 35.0425 32.4871 35.0425 34.8386 35.0425C35.2024 35.0425 35.3842 35.2246 35.3896 35.5888C35.3896 35.6447 35.3896 35.7024 35.3896 35.7583C35.3896 36.2217 35.242 36.3696 34.7828 36.3696C33.6253 36.3696 32.4678 36.3696 31.3086 36.3696C31.3081 36.3696 31.3077 36.37 31.3077 36.3705Z" fill="#0097FF"/>
<path id="Vector_46" d="M18.6478 8.28959C18.8014 8.45109 18.7754 8.74133 18.6381 8.91691C18.6293 8.92828 18.6199 8.93918 18.61 8.94953C18.2391 9.3372 17.8573 9.71586 17.4738 10.0927C17.2523 10.3109 16.9984 10.3127 16.7788 10.0963C16.3898 9.71406 16.0063 9.32819 15.6246 8.94052C15.4175 8.72955 15.4121 8.47351 15.6174 8.26254C16.0027 7.86766 16.3916 7.47638 16.786 7.09232C16.984 6.89939 17.2343 6.88496 17.4342 7.07429C17.8483 7.46917 18.2499 7.87668 18.6478 8.28959Z" fill="#0097FF"/>
<path id="Vector_47" d="M47.2657 8.60698C47.2651 8.60698 47.2646 8.60728 47.2643 8.60778C47.1943 8.73194 47.1529 8.8578 47.0721 8.94416C46.6994 9.33183 46.3194 9.71049 45.9359 10.0873C45.6982 10.3217 45.4515 10.3145 45.2121 10.0765C44.8357 9.70327 44.4612 9.32822 44.0885 8.95137C43.8706 8.73139 43.8652 8.47715 44.0795 8.25897C44.4594 7.8695 44.8447 7.48543 45.2337 7.10317C45.4443 6.89581 45.7036 6.89401 45.9125 7.09776C46.3068 7.48363 46.6976 7.8731 47.0793 8.26979C47.1598 8.354 47.1994 8.48095 47.2671 8.60462C47.2676 8.60568 47.2669 8.60698 47.2657 8.60698Z" fill="#0097FF"/>
<path id="Vector_48" d="M52.9194 22.8579C52.9189 22.8585 52.9186 22.8593 52.9186 22.8601C52.9186 23.1355 52.9221 23.411 52.9186 23.6864C52.9131 23.9822 52.7367 24.1643 52.4432 24.1661C51.8922 24.1715 51.3412 24.1715 50.7902 24.1661C50.5129 24.1625 50.3257 23.9731 50.3239 23.6955C50.3185 23.1365 50.3185 22.5775 50.3239 22.0186C50.3257 21.7589 50.4985 21.5696 50.7596 21.566C51.3394 21.5552 51.9174 21.5552 52.4972 21.566C52.7529 21.5714 52.9113 21.7517 52.9186 22.0077C52.9257 22.2904 52.9186 22.5731 52.9203 22.8557C52.9203 22.8565 52.92 22.8573 52.9194 22.8579Z" fill="#0097FF"/>
<path id="Vector_49" d="M33.5089 19.5436C33.5095 19.5442 33.5098 19.5449 33.5098 19.5457C33.5221 19.8645 33.4285 20.1958 33.2109 20.5074C32.7589 21.1475 32.3322 21.8074 31.8928 22.4565C31.6173 22.8659 31.2572 22.8532 30.9925 22.4313C30.591 21.7912 30.202 21.1421 29.7843 20.5128C29.3648 19.8817 29.3882 19.2254 29.6691 18.5744C30.0382 17.7252 30.9943 17.2618 31.8712 17.4565C32.8719 17.6782 33.5074 18.4674 33.508 19.5414C33.508 19.5422 33.5083 19.543 33.5089 19.5436Z" fill="#0097FF"/>
</g>
<g id="Group_9">
<path id="Vector_50" d="M23.2898 77.9783C23.0972 78.1821 22.8325 78.2831 22.4976 78.2831C22.1806 78.2831 21.9304 78.1821 21.7449 77.9783C21.5594 77.7764 21.4676 77.5167 21.4676 77.1994C21.4676 76.6586 21.906 76.2203 22.4467 76.2203H22.4976C22.8325 76.2203 23.0972 76.3086 23.2898 76.4853C23.4843 76.6602 23.5491 76.9145 23.5491 77.2156C23.5491 77.533 23.4843 77.7764 23.2898 77.9783ZM27.8742 74.1954C27.3196 73.3064 26.5669 72.6086 25.6144 72.1074C24.6637 71.6043 23.6247 71.3519 22.4976 71.3519H15.6282C15.2645 71.3519 14.9692 71.6476 14.9692 72.0118V75.5585C14.9692 75.9228 15.2645 76.2185 15.6282 76.2185H15.9992C16.3629 76.2185 16.6582 76.5142 16.6582 76.8784V77.6466C16.6582 77.8233 16.6096 77.9639 16.5123 78.0703C16.4151 78.1749 16.2801 78.229 16.1036 78.229H13.1452C12.9687 78.229 12.8319 78.1749 12.7347 78.0703C12.6392 77.9639 12.5906 77.8233 12.5906 77.6466V69.3125C12.5906 68.9483 12.2953 68.6526 11.9316 68.6526H8.44382C8.0801 68.6526 7.7848 68.9483 7.7848 69.3125V69.8426C7.7848 70.2069 7.4895 70.5026 7.12578 70.5026H6.75485C5.60966 70.5026 4.56171 70.7532 3.61099 71.2563C2.66027 71.7594 1.90222 72.4554 1.33863 73.3461C0.775035 74.2369 0.494141 75.2376 0.494141 76.3483C0.494141 77.459 0.775035 78.4904 1.33863 79.4443C1.90222 80.3963 2.66387 81.1536 3.62359 81.718C4.58332 82.2824 5.62767 82.5655 6.75485 82.5655C7.64255 82.5655 8.45822 82.387 9.20548 82.0317C9.45396 81.9127 9.75106 81.947 9.94913 82.1381C10.1472 82.3293 10.3543 82.4933 10.5829 82.6448C11.305 83.1208 12.1585 83.3588 13.1452 83.3588H16.1036C17.1588 83.3588 18.0284 83.0974 18.7127 82.5727C18.9306 82.405 19.2295 82.4086 19.4617 82.5547C19.4743 82.5619 19.4869 82.5709 19.4977 82.5781C20.3872 83.1335 21.3866 83.4111 22.4958 83.4111C23.6049 83.4111 24.6619 83.1298 25.6126 82.5655C26.5651 82.0011 27.3178 81.2474 27.8724 80.3026C28.427 79.3595 28.7042 78.3245 28.7042 77.1958C28.7042 76.067 28.427 75.0843 27.8724 74.1918L27.8742 74.1954ZM7.7848 76.3519C7.7848 76.6693 7.69117 76.9307 7.5075 77.1327C7.32204 77.3364 7.07176 77.4374 6.75485 77.4374C6.41994 77.4374 6.15525 77.3364 5.96078 77.1327C5.76812 76.9307 5.67089 76.6693 5.67089 76.3519C5.67089 76.0526 5.76812 75.8146 5.96078 75.6379C6.15525 75.4612 6.41994 75.3728 6.75485 75.3728H6.8057C7.34644 75.3728 7.7848 75.8112 7.7848 76.3519Z" fill="#0097FF"/>
<path id="Vector_51" d="M44.3638 71.8818C44.7312 71.8818 45.0301 72.1812 45.0301 72.549V77.9926C45.0301 78.9627 44.7924 79.857 44.317 80.6775C43.8417 81.4979 43.1989 82.1506 42.3886 82.6338C41.5783 83.1207 40.6816 83.3623 39.6949 83.3623H35.7317C35.3878 83.3623 35.1015 83.6202 35.0565 83.9627C34.9665 84.6624 34.826 85.2826 34.637 85.8218C34.275 86.8441 33.6196 87.7745 32.6689 88.613C31.828 89.3523 30.6378 90.1222 29.0983 90.9246C28.758 91.1013 28.3384 90.9552 28.1818 90.6054L26.8854 87.7078C26.7485 87.4013 26.8601 87.0425 27.1446 86.8658C28.1134 86.2653 28.8084 85.7659 29.2333 85.3728C29.7267 84.913 30.031 84.464 30.1463 84.0241C30.2597 83.5823 30.3173 82.8682 30.3173 81.8801V73.2901C30.3173 72.9222 30.6162 72.6229 30.9835 72.6229H34.5091C34.8765 72.6229 35.1754 72.9222 35.1754 73.2901V77.6482C35.1754 77.8249 35.224 77.9656 35.3212 78.0719C35.4184 78.1765 35.5535 78.2306 35.7299 78.2306H39.6409C39.7813 78.2306 39.9037 78.1765 40.01 78.0719C40.1162 77.9656 40.1684 77.8339 40.1684 77.6753V72.549C40.1684 72.1812 40.4673 71.8818 40.8347 71.8818H44.3602H44.3638Z" fill="#0097FF"/>
<path id="Vector_52" d="M40.9359 66.8224V68.6093C40.9359 69.2476 41.4527 69.7669 42.0919 69.7669H43.8763C44.5137 69.7669 45.0323 69.2494 45.0323 68.6093V66.8224C45.0323 66.1841 44.5155 65.6648 43.8763 65.6648H42.0919C41.4545 65.6648 40.9359 66.1823 40.9359 66.8224ZM36.8413 66.8224V68.6093C36.8413 69.2476 37.3581 69.7669 37.9973 69.7669H39.7817C40.4191 69.7669 40.9377 69.2494 40.9377 68.6093V66.8224C40.9377 66.1841 40.4209 65.6648 39.7817 65.6648H37.9973C37.3599 65.6648 36.8413 66.1823 36.8413 66.8224Z" fill="#0097FF"/>
<path id="Vector_53" d="M55.4718 71.1914C55.8415 71.5845 56.4602 71.603 56.8527 71.2326L56.8907 71.1968C57.1337 70.9678 57.2652 70.7208 57.2868 70.4593C57.3066 70.1979 57.2148 69.958 57.0095 69.7399C56.7916 69.5091 56.5432 69.3865 56.2641 69.372C55.9832 69.3576 55.7221 69.4658 55.479 69.6948C55.2485 69.913 55.1351 70.1582 55.1387 70.4323C55.1423 70.7063 55.2539 70.9588 55.4718 71.1914ZM52.0443 79.6751C52.0439 79.6751 52.0436 79.6746 52.0438 79.6742C52.6685 78.3583 53.2536 77.2695 53.8008 76.406C53.8476 76.3323 53.8258 76.2346 53.7521 76.1878L53.0608 75.7479C52.1083 75.1438 51.3664 74.3739 50.8316 73.4399C50.2968 72.5059 50.034 71.5141 50.0412 70.4629C50.0484 69.4135 50.3509 68.42 50.9451 67.4806C51.5483 66.5285 52.3423 65.8 53.3291 65.297C54.314 64.7957 55.3529 64.5613 56.4459 64.5992C57.5389 64.6352 58.5616 64.9562 59.5123 65.5602C60.4487 66.1553 61.1437 66.9252 61.5992 67.8718C62.053 68.8185 62.2367 69.8282 62.152 70.9011C62.0674 71.9739 61.7217 72.9873 61.1185 73.9411L60.0291 75.6613L58.9398 77.3815C58.0629 78.7663 57.294 80.079 56.6332 81.3195C56.2551 82.0281 55.9165 82.7422 55.614 83.4616C55.2449 84.3415 54.2402 84.7617 53.3651 84.3848L52.1713 83.8709C51.3592 83.5211 50.9469 82.6124 51.2116 81.7667C51.4203 81.1034 51.6975 80.4058 52.0448 79.6759C52.045 79.6755 52.0447 79.6751 52.0443 79.6751Z" fill="#0097FF"/>
<path id="Vector_54" d="M55.4718 71.1914C55.8415 71.5845 56.4602 71.603 56.8527 71.2326L56.8907 71.1968C57.1337 70.9678 57.2652 70.7208 57.2868 70.4593C57.3066 70.1979 57.2148 69.958 57.0095 69.7399C56.7916 69.5091 56.5432 69.3865 56.2641 69.372C55.9832 69.3576 55.7221 69.4658 55.479 69.6948C55.2485 69.913 55.1351 70.1582 55.1387 70.4323C55.1423 70.7063 55.2539 70.9588 55.4718 71.1914ZM52.0443 79.6751C52.0439 79.6751 52.0436 79.6746 52.0438 79.6742C52.6685 78.3583 53.2536 77.2695 53.8008 76.406C53.8476 76.3323 53.8258 76.2346 53.7521 76.1878L53.0608 75.7479C52.1083 75.1438 51.3664 74.3739 50.8316 73.4399C50.2968 72.5059 50.034 71.5141 50.0412 70.4629C50.0484 69.4135 50.3509 68.42 50.9451 67.4806C51.5483 66.5285 52.3423 65.8 53.3291 65.297C54.314 64.7957 55.3529 64.5613 56.4459 64.5992C57.5389 64.6352 58.5616 64.9562 59.5123 65.5602C60.4487 66.1553 61.1437 66.9252 61.5992 67.8718C62.053 68.8185 62.2367 69.8282 62.152 70.9011C62.0674 71.9739 61.7217 72.9873 61.1185 73.9411L60.0291 75.6613L58.9398 77.3815C58.0629 78.7663 57.294 80.079 56.6332 81.3195C56.2551 82.0281 55.9165 82.7422 55.614 83.4616C55.2449 84.3415 54.2402 84.7617 53.3651 84.3848L52.1713 83.8709C51.3592 83.5211 50.9469 82.6124 51.2116 81.7667C51.4203 81.1034 51.6975 80.4058 52.0448 79.6759C52.045 79.6755 52.0447 79.6751 52.0443 79.6751Z" fill="#0097FF"/>
</g>
</g>
</g>
</svg>
